<svg width="250" height="44" viewBox="0 0 250 44" fill="none" xmlns="http://www.w3.org/2000/svg">
<path d="M80.3438 15.08C79.5438 15.08 78.8184 14.92 78.1678 14.6C77.5171 14.28 76.9571 13.848 76.4878 13.304C76.0184 12.7493 75.6558 12.1307 75.3997 11.448C75.1438 10.7547 75.0158 10.0453 75.0158 9.32C75.0158 8.56267 75.1491 7.84267 75.4158 7.16C75.6824 6.46667 76.0558 5.85333 76.5358 5.32C77.0264 4.776 77.5971 4.34933 78.2478 4.04C78.8984 3.72 79.6024 3.56 80.3598 3.56C81.1598 3.56 81.8851 3.72533 82.5358 4.056C83.1864 4.38667 83.7411 4.82933 84.1998 5.384C84.6691 5.93867 85.0318 6.55733 85.2878 7.24C85.5438 7.92267 85.6718 8.62133 85.6718 9.336C85.6718 10.0933 85.5384 10.8187 85.2718 11.512C85.0051 12.1947 84.6318 12.808 84.1518 13.352C83.6718 13.8853 83.1064 14.3067 82.4558 14.616C81.8051 14.9253 81.1011 15.08 80.3438 15.08ZM76.1358 9.32C76.1358 9.93867 76.2371 10.536 76.4398 11.112C76.6424 11.6773 76.9304 12.184 77.3038 12.632C77.6771 13.0693 78.1198 13.4213 78.6318 13.688C79.1544 13.944 79.7251 14.072 80.3438 14.072C80.9944 14.072 81.5758 13.9387 82.0878 13.672C82.6104 13.3947 83.0531 13.032 83.4158 12.584C83.7891 12.1253 84.0718 11.6133 84.2638 11.048C84.4558 10.4827 84.5518 9.90667 84.5518 9.32C84.5518 8.70133 84.4504 8.10933 84.2478 7.544C84.0451 6.97867 83.7518 6.472 83.3678 6.024C82.9944 5.576 82.5518 5.224 82.0398 4.968C81.5278 4.712 80.9624 4.584 80.3438 4.584C79.7038 4.584 79.1224 4.71733 78.5998 4.984C78.0878 5.25067 77.6451 5.61333 77.2718 6.072C76.9091 6.52 76.6264 7.02667 76.4238 7.592C76.2318 8.15733 76.1358 8.73333 76.1358 9.32ZM91.3994 18.408V15H91.0314C90.21 15 89.4954 14.808 88.8874 14.424C88.2794 14.04 87.81 13.5387 87.4794 12.92C87.1487 12.2907 86.9834 11.6027 86.9834 10.856C86.9834 10.0987 87.1487 9.40533 87.4794 8.776C87.8207 8.14667 88.2954 7.64 88.9034 7.256C89.5114 6.872 90.2207 6.68 91.0314 6.68H91.3994V3.32H92.4874V6.68H92.8554C93.666 6.68 94.3754 6.872 94.9834 7.256C95.5914 7.64 96.0607 8.14667 96.3914 8.776C96.7327 9.40533 96.9034 10.0987 96.9034 10.856C96.9034 11.6027 96.738 12.2907 96.4074 12.92C96.0767 13.5387 95.6074 14.04 94.9994 14.424C94.3914 14.808 93.6767 15 92.8554 15H92.4874V18.408H91.3994ZM91.0314 14.088H91.4314V7.592H91.0314C90.4554 7.592 89.9434 7.74133 89.4954 8.04C89.0474 8.328 88.6954 8.72267 88.4394 9.224C88.1834 9.71467 88.0554 10.264 88.0554 10.872C88.0554 11.4693 88.178 12.0133 88.4234 12.504C88.6794 12.9947 89.0314 13.384 89.4794 13.672C89.9274 13.9493 90.4447 14.088 91.0314 14.088ZM92.4394 14.088H92.8554C93.442 14.088 93.9594 13.9493 94.4074 13.672C94.8554 13.384 95.202 12.9947 95.4474 12.504C95.7034 12.0133 95.8314 11.4693 95.8314 10.872C95.8314 10.264 95.7034 9.71467 95.4474 9.224C95.1914 8.72267 94.8394 8.328 94.3914 8.04C93.954 7.74133 93.442 7.592 92.8554 7.592H92.4394V14.088ZM98.7153 15V6.68H99.8033V13.528L104.875 6.664H105.851V15H104.763V8.264L99.7713 15H98.7153ZM114.871 16.936V15H108.215V6.664H109.303V14.04H113.623V6.664H114.711V14.04H115.847V16.936H114.871ZM117.481 15V6.68H118.569V13.528L123.641 6.664H124.617V15H123.529V8.264L118.537 15H117.481ZM126.325 12.6C126.325 12.0773 126.474 11.6293 126.773 11.256C127.072 10.872 127.482 10.5787 128.005 10.376C128.538 10.1627 129.152 10.056 129.845 10.056C130.25 10.056 130.672 10.088 131.109 10.152C131.546 10.216 131.936 10.312 132.277 10.44V9.736C132.277 9.032 132.069 8.472 131.653 8.056C131.237 7.64 130.661 7.432 129.925 7.432C129.477 7.432 129.034 7.51733 128.597 7.688C128.17 7.848 127.722 8.088 127.253 8.408L126.837 7.64C127.381 7.26667 127.914 6.98933 128.437 6.808C128.96 6.616 129.493 6.52 130.037 6.52C131.061 6.52 131.872 6.81333 132.469 7.4C133.066 7.98667 133.365 8.79733 133.365 9.832V13.688C133.365 13.8373 133.397 13.9493 133.461 14.024C133.525 14.088 133.626 14.1253 133.765 14.136V15C133.648 15.0107 133.546 15.0213 133.461 15.032C133.376 15.0427 133.312 15.0427 133.269 15.032C133.002 15.0213 132.8 14.936 132.661 14.776C132.522 14.616 132.448 14.4453 132.437 14.264L132.421 13.656C132.048 14.136 131.562 14.5093 130.965 14.776C130.368 15.032 129.76 15.16 129.141 15.16C128.608 15.16 128.122 15.048 127.685 14.824C127.258 14.5893 126.922 14.28 126.677 13.896C126.442 13.5013 126.325 13.0693 126.325 12.6ZM131.909 13.24C132.026 13.0907 132.117 12.9467 132.181 12.808C132.245 12.6693 132.277 12.5467 132.277 12.44V11.224C131.914 11.0853 131.536 10.9787 131.141 10.904C130.757 10.8293 130.368 10.792 129.973 10.792C129.194 10.792 128.565 10.9467 128.085 11.256C127.605 11.5653 127.365 11.9867 127.365 12.52C127.365 12.8293 127.445 13.1227 127.605 13.4C127.765 13.6667 128 13.8907 128.309 14.072C128.618 14.2427 128.981 14.328 129.397 14.328C129.92 14.328 130.405 14.2267 130.853 14.024C131.312 13.8213 131.664 13.56 131.909 13.24ZM134.916 15.048V14.056C135.204 14.056 135.46 13.9813 135.684 13.832C135.908 13.672 136.105 13.4053 136.276 13.032C136.457 12.6587 136.601 12.1467 136.708 11.496C136.814 10.8347 136.884 9.99733 136.916 8.984L137.012 6.664H142.42V15H141.332V7.64H137.972L137.94 9.08C137.897 10.232 137.806 11.1973 137.668 11.976C137.529 12.744 137.332 13.352 137.076 13.8C136.83 14.248 136.526 14.568 136.164 14.76C135.801 14.952 135.385 15.048 134.916 15.048ZM144.809 15V6.664H145.897V9.608H148.057C149.006 9.608 149.721 9.85333 150.201 10.344C150.692 10.824 150.937 11.4587 150.937 12.248C150.937 12.76 150.83 13.224 150.617 13.64C150.404 14.056 150.089 14.3867 149.673 14.632C149.268 14.8773 148.756 15 148.137 15H144.809ZM145.897 14.136H147.993C148.43 14.136 148.782 14.0507 149.049 13.88C149.316 13.6987 149.513 13.4693 149.641 13.192C149.769 12.904 149.833 12.5947 149.833 12.264C149.833 11.944 149.774 11.6507 149.657 11.384C149.55 11.1067 149.358 10.888 149.081 10.728C148.814 10.5573 148.441 10.472 147.961 10.472H145.897V14.136ZM152.622 15V6.664H153.71V10.248H158.478V6.664H159.566V15H158.478V11.224H153.71V15H152.622ZM161.95 15V6.664H163.038V9.608H164.926C165.875 9.608 166.59 9.85333 167.07 10.344C167.56 10.824 167.806 11.4587 167.806 12.248C167.806 12.76 167.699 13.224 167.486 13.64C167.272 14.056 166.958 14.3867 166.542 14.632C166.136 14.8773 165.624 15 165.006 15H161.95ZM163.038 14.136H164.862C165.299 14.136 165.651 14.0507 165.918 13.88C166.184 13.6987 166.382 13.4693 166.51 13.192C166.638 12.904 166.702 12.5947 166.702 12.264C166.702 11.944 166.643 11.6507 166.526 11.384C166.419 11.1067 166.227 10.888 165.95 10.728C165.683 10.5573 165.31 10.472 164.83 10.472H163.038V14.136ZM169.326 15V6.68H170.414V15H169.326ZM172.793 15V6.68H173.881V13.528L178.953 6.664H179.929V15H178.841V8.264L173.849 15H172.793ZM176.377 5.608C175.652 5.608 175.092 5.43733 174.697 5.096C174.303 4.75467 174.105 4.32267 174.105 3.8H174.905C174.905 4.12 175.023 4.38667 175.257 4.6C175.503 4.81333 175.876 4.92 176.377 4.92C176.868 4.92 177.225 4.81867 177.449 4.616C177.684 4.41333 177.817 4.14133 177.849 3.8H178.633C178.633 4.32267 178.436 4.75467 178.041 5.096C177.647 5.43733 177.092 5.608 176.377 5.608ZM186.372 15V6.664H193.076V15H191.988V7.64H187.46V15H186.372ZM194.809 12.6C194.809 12.0773 194.959 11.6293 195.257 11.256C195.556 10.872 195.967 10.5787 196.489 10.376C197.023 10.1627 197.636 10.056 198.329 10.056C198.735 10.056 199.156 10.088 199.593 10.152C200.031 10.216 200.42 10.312 200.761 10.44V9.736C200.761 9.032 200.553 8.472 200.137 8.056C199.721 7.64 199.145 7.432 198.409 7.432C197.961 7.432 197.519 7.51733 197.081 7.688C196.655 7.848 196.207 8.088 195.737 8.408L195.321 7.64C195.865 7.26667 196.399 6.98933 196.921 6.808C197.444 6.616 197.977 6.52 198.521 6.52C199.545 6.52 200.356 6.81333 200.953 7.4C201.551 7.98667 201.849 8.79733 201.849 9.832V13.688C201.849 13.8373 201.881 13.9493 201.945 14.024C202.009 14.088 202.111 14.1253 202.249 14.136V15C202.132 15.0107 202.031 15.0213 201.945 15.032C201.86 15.0427 201.796 15.0427 201.753 15.032C201.487 15.0213 201.284 14.936 201.145 14.776C201.007 14.616 200.932 14.4453 200.921 14.264L200.905 13.656C200.532 14.136 200.047 14.5093 199.449 14.776C198.852 15.032 198.244 15.16 197.625 15.16C197.092 15.16 196.607 15.048 196.169 14.824C195.743 14.5893 195.407 14.28 195.161 13.896C194.927 13.5013 194.809 13.0693 194.809 12.6ZM200.393 13.24C200.511 13.0907 200.601 12.9467 200.665 12.808C200.729 12.6693 200.761 12.5467 200.761 12.44V11.224C200.399 11.0853 200.02 10.9787 199.625 10.904C199.241 10.8293 198.852 10.792 198.457 10.792C197.679 10.792 197.049 10.9467 196.569 11.256C196.089 11.5653 195.849 11.9867 195.849 12.52C195.849 12.8293 195.929 13.1227 196.089 13.4C196.249 13.6667 196.484 13.8907 196.793 14.072C197.103 14.2427 197.465 14.328 197.881 14.328C198.404 14.328 198.889 14.2267 199.337 14.024C199.796 13.8213 200.148 13.56 200.393 13.24ZM208.456 15.16C207.763 15.16 207.139 14.9787 206.584 14.616C206.04 14.2533 205.608 13.8053 205.288 13.272V18.408H204.2V6.664H205.176V8.28C205.507 7.75733 205.949 7.336 206.504 7.016C207.059 6.68533 207.651 6.52 208.28 6.52C208.856 6.52 209.384 6.64267 209.864 6.888C210.344 7.12267 210.76 7.44267 211.112 7.848C211.464 8.25333 211.736 8.71733 211.928 9.24C212.131 9.752 212.232 10.2853 212.232 10.84C212.232 11.6187 212.072 12.3387 211.752 13C211.443 13.6507 211.005 14.1733 210.44 14.568C209.875 14.9627 209.213 15.16 208.456 15.16ZM208.152 14.2C208.611 14.2 209.021 14.1093 209.384 13.928C209.747 13.736 210.056 13.48 210.312 13.16C210.579 12.84 210.781 12.4827 210.92 12.088C211.059 11.6827 211.128 11.2667 211.128 10.84C211.128 10.392 211.048 9.96533 210.888 9.56C210.739 9.15467 210.52 8.79733 210.232 8.488C209.944 8.17867 209.613 7.93333 209.24 7.752C208.867 7.57067 208.461 7.48 208.024 7.48C207.747 7.48 207.459 7.53333 207.16 7.64C206.861 7.74667 206.573 7.90133 206.296 8.104C206.029 8.296 205.805 8.51467 205.624 8.76C205.443 9.00533 205.331 9.26667 205.288 9.544V12.104C205.459 12.4987 205.688 12.856 205.976 13.176C206.264 13.4853 206.595 13.736 206.968 13.928C207.352 14.1093 207.747 14.2 208.152 14.2ZM216.155 15V7.64H213.179V6.664H220.219V7.64H217.243V15H216.155ZM221.684 15V6.664H222.772V10.248H227.54V6.664H228.628V15H227.54V11.224H222.772V15H221.684ZM234.628 15.16C234.031 15.16 233.476 15.048 232.964 14.824C232.452 14.5893 232.009 14.2747 231.636 13.88C231.263 13.4747 230.969 13.0107 230.756 12.488C230.553 11.9653 230.452 11.4053 230.452 10.808C230.452 10.0293 230.628 9.31467 230.98 8.664C231.343 8.01333 231.839 7.496 232.468 7.112C233.097 6.71733 233.812 6.52 234.612 6.52C235.433 6.52 236.148 6.71733 236.756 7.112C237.375 7.50667 237.86 8.02933 238.212 8.68C238.564 9.32 238.74 10.024 238.74 10.792C238.74 10.8773 238.74 10.9627 238.74 11.048C238.74 11.1227 238.735 11.1813 238.724 11.224H231.588C231.641 11.8213 231.807 12.3547 232.084 12.824C232.372 13.2827 232.74 13.6507 233.188 13.928C233.647 14.1947 234.143 14.328 234.676 14.328C235.22 14.328 235.732 14.1893 236.212 13.912C236.703 13.6347 237.044 13.272 237.236 12.824L238.18 13.08C238.009 13.4747 237.748 13.832 237.396 14.152C237.044 14.472 236.628 14.7227 236.148 14.904C235.679 15.0747 235.172 15.16 234.628 15.16ZM231.556 10.44H237.716C237.673 9.832 237.508 9.29867 237.22 8.84C236.943 8.38133 236.575 8.024 236.116 7.768C235.668 7.50133 235.172 7.368 234.628 7.368C234.084 7.368 233.588 7.50133 233.14 7.768C232.692 8.024 232.324 8.38667 232.036 8.856C231.759 9.31467 231.599 9.84267 231.556 10.44ZM244.675 15.16C243.981 15.16 243.357 14.9787 242.803 14.616C242.259 14.2533 241.827 13.8053 241.507 13.272V18.408H240.419V6.664H241.395V8.28C241.725 7.75733 242.168 7.336 242.723 7.016C243.277 6.68533 243.869 6.52 244.499 6.52C245.075 6.52 245.603 6.64267 246.083 6.888C246.563 7.12267 246.979 7.44267 247.331 7.848C247.683 8.25333 247.955 8.71733 248.147 9.24C248.349 9.752 248.451 10.2853 248.451 10.84C248.451 11.6187 248.291 12.3387 247.971 13C247.661 13.6507 247.224 14.1733 246.659 14.568C246.093 14.9627 245.432 15.16 244.675 15.16ZM244.371 14.2C244.829 14.2 245.24 14.1093 245.603 13.928C245.965 13.736 246.275 13.48 246.531 13.16C246.797 12.84 247 12.4827 247.139 12.088C247.277 11.6827 247.347 11.2667 247.347 10.84C247.347 10.392 247.267 9.96533 247.107 9.56C246.957 9.15467 246.739 8.79733 246.451 8.488C246.163 8.17867 245.832 7.93333 245.459 7.752C245.085 7.57067 244.68 7.48 244.243 7.48C243.965 7.48 243.677 7.53333 243.379 7.64C243.08 7.74667 242.792 7.90133 242.515 8.104C242.248 8.296 242.024 8.51467 241.843 8.76C241.661 9.00533 241.549 9.26667 241.507 9.544V12.104C241.677 12.4987 241.907 12.856 242.195 13.176C242.483 13.4853 242.813 13.736 243.187 13.928C243.571 14.1093 243.965 14.2 244.371 14.2ZM80.8398 36.008V37H75.4158V36.008H77.6878V29.16C77.6024 29.288 77.4584 29.4267 77.2558 29.576C77.0531 29.7253 76.8184 29.864 76.5518 29.992C76.2958 30.12 76.0398 30.2267 75.7838 30.312C75.5278 30.3973 75.2931 30.44 75.0798 30.44V29.384C75.3251 29.384 75.5918 29.3147 75.8798 29.176C76.1678 29.0373 76.4451 28.8773 76.7118 28.696C76.9784 28.5147 77.2024 28.344 77.3838 28.184C77.5651 28.024 77.6664 27.9173 77.6878 27.864H78.8078V36.008H80.8398ZM81.8595 31.24C81.8595 30.5467 81.9768 29.8693 82.2115 29.208C82.4568 28.536 82.8088 27.928 83.2675 27.384C83.7262 26.8293 84.2915 26.392 84.9635 26.072C85.6355 25.7413 86.3982 25.576 87.2515 25.576C88.2648 25.576 89.1288 25.8107 89.8435 26.28C90.5688 26.7387 91.1022 27.3307 91.4435 28.056L90.5635 28.6C90.3182 28.0987 90.0088 27.704 89.6355 27.416C89.2622 27.1173 88.8622 26.904 88.4355 26.776C88.0195 26.648 87.6035 26.584 87.1875 26.584C86.5048 26.584 85.9022 26.7227 85.3795 27C84.8568 27.2667 84.4142 27.6293 84.0515 28.088C83.6995 28.536 83.4328 29.0427 83.2515 29.608C83.0702 30.1627 82.9795 30.728 82.9795 31.304C82.9795 31.9333 83.0862 32.536 83.2995 33.112C83.5128 33.688 83.8115 34.2 84.1955 34.648C84.5795 35.0853 85.0275 35.4373 85.5395 35.704C86.0622 35.96 86.6275 36.088 87.2355 36.088C87.6622 36.088 88.0995 36.0133 88.5475 35.864C88.9955 35.7147 89.4115 35.4853 89.7955 35.176C90.1902 34.8667 90.5048 34.4667 90.7395 33.976L91.6675 34.456C91.4328 35.0213 91.0702 35.5013 90.5795 35.896C90.0888 36.2907 89.5395 36.5893 88.9315 36.792C88.3342 36.9947 87.7475 37.096 87.1715 37.096C86.3928 37.096 85.6782 36.9307 85.0275 36.6C84.3768 36.2587 83.8115 35.8107 83.3315 35.256C82.8622 34.6907 82.4995 34.0613 82.2435 33.368C81.9875 32.664 81.8595 31.9547 81.8595 31.24ZM97.4184 37V28.68H98.5064V35.528L103.578 28.664H104.554V37H103.466V30.264L98.4744 37H97.4184ZM116.309 36.008V37H110.885V36.008H113.157V29.16C113.071 29.288 112.927 29.4267 112.725 29.576C112.522 29.7253 112.287 29.864 112.021 29.992C111.765 30.12 111.509 30.2267 111.253 30.312C110.997 30.3973 110.762 30.44 110.549 30.44V29.384C110.794 29.384 111.061 29.3147 111.349 29.176C111.637 29.0373 111.914 28.8773 112.181 28.696C112.447 28.5147 112.671 28.344 112.853 28.184C113.034 28.024 113.135 27.9173 113.157 27.864H114.277V36.008H116.309ZM117.328 31.24C117.328 30.5467 117.446 29.8693 117.68 29.208C117.926 28.536 118.278 27.928 118.736 27.384C119.195 26.8293 119.76 26.392 120.432 26.072C121.104 25.7413 121.867 25.576 122.72 25.576C123.734 25.576 124.598 25.8107 125.312 26.28C126.038 26.7387 126.571 27.3307 126.912 28.056L126.032 28.6C125.787 28.0987 125.478 27.704 125.104 27.416C124.731 27.1173 124.331 26.904 123.904 26.776C123.488 26.648 123.072 26.584 122.656 26.584C121.974 26.584 121.371 26.7227 120.848 27C120.326 27.2667 119.883 27.6293 119.52 28.088C119.168 28.536 118.902 29.0427 118.72 29.608C118.539 30.1627 118.448 30.728 118.448 31.304C118.448 31.9333 118.555 32.536 118.768 33.112C118.982 33.688 119.28 34.2 119.664 34.648C120.048 35.0853 120.496 35.4373 121.008 35.704C121.531 35.96 122.096 36.088 122.704 36.088C123.131 36.088 123.568 36.0133 124.016 35.864C124.464 35.7147 124.88 35.4853 125.264 35.176C125.659 34.8667 125.974 34.4667 126.208 33.976L127.136 34.456C126.902 35.0213 126.539 35.5013 126.048 35.896C125.558 36.2907 125.008 36.5893 124.4 36.792C123.803 36.9947 123.216 37.096 122.64 37.096C121.862 37.096 121.147 36.9307 120.496 36.6C119.846 36.2587 119.28 35.8107 118.8 35.256C118.331 34.6907 117.968 34.0613 117.712 33.368C117.456 32.664 117.328 31.9547 117.328 31.24ZM128.665 33.144V32.136H133.337V33.144H128.665ZM144.343 34.072C144.343 34.6373 144.199 35.144 143.911 35.592C143.623 36.0293 143.234 36.376 142.743 36.632C142.263 36.8773 141.735 37 141.159 37H135.799V25.64H141.271C141.804 25.64 142.263 25.784 142.647 26.072C143.042 26.3493 143.34 26.712 143.543 27.16C143.756 27.5973 143.863 28.056 143.863 28.536C143.863 29.1013 143.719 29.624 143.431 30.104C143.143 30.584 142.743 30.9413 142.231 31.176C142.882 31.368 143.394 31.7253 143.767 32.248C144.151 32.7707 144.343 33.3787 144.343 34.072ZM143.223 33.88C143.223 33.496 143.138 33.144 142.967 32.824C142.796 32.4933 142.562 32.2267 142.263 32.024C141.975 31.8213 141.644 31.72 141.271 31.72H136.919V36.024H141.159C141.543 36.024 141.89 35.9227 142.199 35.72C142.508 35.5173 142.754 35.256 142.935 34.936C143.127 34.6053 143.223 34.2533 143.223 33.88ZM136.919 26.616V30.808H140.823C141.196 30.808 141.527 30.712 141.815 30.52C142.103 30.3173 142.332 30.056 142.503 29.736C142.674 29.416 142.759 29.0747 142.759 28.712C142.759 28.328 142.679 27.9813 142.519 27.672C142.359 27.352 142.14 27.096 141.863 26.904C141.586 26.712 141.271 26.616 140.919 26.616H136.919ZM146.231 37V28.664H147.319V37H146.231ZM146.231 26.92V25.32H147.319V26.92H146.231ZM153.716 36.6C153.63 36.632 153.497 36.6907 153.316 36.776C153.134 36.8613 152.916 36.936 152.66 37C152.404 37.064 152.126 37.096 151.828 37.096C151.518 37.096 151.225 37.0373 150.948 36.92C150.681 36.8027 150.468 36.6267 150.308 36.392C150.148 36.1467 150.068 35.848 150.068 35.496V29.528H148.916V28.664H150.068V25.848H151.156V28.664H153.076V29.528H151.156V35.192C151.177 35.4907 151.284 35.7147 151.476 35.864C151.678 36.0133 151.908 36.088 152.164 36.088C152.462 36.088 152.734 36.04 152.98 35.944C153.225 35.8373 153.374 35.7627 153.428 35.72L153.716 36.6ZM159.235 29.624C158.51 29.6453 157.87 29.848 157.315 30.232C156.771 30.616 156.387 31.144 156.163 31.816V37H155.075V28.664H156.099V30.664C156.387 30.0773 156.766 29.6027 157.235 29.24C157.715 28.8773 158.222 28.6747 158.755 28.632C158.862 28.6213 158.952 28.616 159.027 28.616C159.112 28.616 159.182 28.6213 159.235 28.632V29.624ZM160.684 37V28.664H161.772V37H160.684ZM160.684 26.92V25.32H161.772V26.92H160.684ZM164.425 28.664L166.873 31.928L167.001 32.168L167.129 31.928L169.561 28.664H170.793L167.625 32.856L170.793 37H169.561L167.129 33.752L167.001 33.528L166.873 33.752L164.441 37H163.209L166.361 32.856L163.209 28.664H164.425Z" fill="#2B2C34"/>
<path fill-rule="evenodd" clip-rule="evenodd" d="M29.7743 32.2661C28.662 32.1955 27.3821 32.0013 26.3758 31.71C26.1904 31.657 25.4048 31.3657 25.2018 31.2774C21.6885 29.6532 19.2434 26.0958 19.2434 21.9823C19.2434 16.3329 23.8424 11.7251 29.4918 11.7251C35.0971 11.7251 39.6608 16.2535 39.7402 21.8323H43.4388C43.3594 14.2055 37.1362 8.02648 29.4918 8.02648C21.7945 8.02648 15.5359 14.285 15.5359 21.9823C15.5359 27.2875 18.5195 31.9042 22.889 34.261C23.6747 34.6759 24.8134 35.1084 25.1929 35.2232C26.4376 35.5939 27.9647 35.8411 29.3241 35.947C29.7831 35.9823 31.3985 36 31.8663 36H57.3682V32.3102H31.9281C31.5839 32.3014 30.1097 32.2837 29.7743 32.2661ZM31.9281 26.4754C31.6633 26.4754 30.2509 26.4666 29.9861 26.4489C29.5448 26.4136 28.9092 26.343 28.4943 26.2547C28.0265 26.1311 27.5939 25.9634 27.3997 25.8575C26.0227 25.116 25.087 23.6595 25.087 21.9823C25.087 19.546 27.0643 17.5687 29.5006 17.5687C31.8928 17.5687 33.826 19.4666 33.9054 21.8411H37.4628C37.3922 17.5069 33.8525 14.0113 29.5006 14.0113C25.0958 14.0113 21.5208 17.5775 21.5208 21.9823C21.5208 25.0895 23.3039 27.773 25.8903 29.0883C26.2875 29.3178 27.0378 29.5649 27.2497 29.6179C27.9823 29.8121 28.9622 29.9445 29.7654 29.9975C30.0567 30.024 31.5044 30.0328 31.8134 30.0328V30.0416H57.377V26.4842H31.9281V26.4754ZM13.2673 35.9735H9.54225V11.7251H4.09584V8H13.2762V35.9735H13.2673ZM0 13.5876V17.1715H4.09584V35.9735H7.6797V13.5876H0Z" fill="#FF0000"/>
<path d="M50.8016 8.26465C49.4599 8.26465 48.3477 9.33275 48.3477 10.6833C48.3477 12.0251 49.4599 13.1373 50.8016 13.1373C52.1875 13.1373 53.2556 12.0251 53.2556 10.6833C53.2556 9.33275 52.1875 8.26465 50.8016 8.26465ZM50.8016 12.7401C49.6894 12.7401 48.7361 11.8662 48.7361 10.6833C48.7361 9.55343 49.6894 8.66187 50.8016 8.66187C51.9139 8.66187 52.8584 9.55343 52.8584 10.6833C52.8584 11.8662 51.905 12.7401 50.8016 12.7401Z" fill="#FF0000"/>
<path d="M51.7372 11.3367C51.7372 11.0631 51.7019 10.8159 51.3842 10.7188C51.7726 10.5864 51.8079 10.3304 51.8079 10.1715C51.8079 9.54478 51.2429 9.46533 51.0134 9.46533H49.9453V11.884H50.3955V10.8953H50.7486C51.2517 10.8953 51.2959 11.1249 51.2959 11.3455C51.2959 11.7604 51.2959 11.831 51.393 11.8928H51.8432C51.7372 11.7869 51.7725 11.7074 51.7372 11.3367ZM50.9163 10.5423H50.3867V9.78311H50.8369C51.1458 9.78311 51.3577 9.88021 51.3577 10.1715C51.3665 10.3216 51.2871 10.5423 50.9163 10.5423Z" fill="#FF0000"/>
</svg>
