<svg width="42" height="9" viewBox="0 0 42 9" fill="none" xmlns="http://www.w3.org/2000/svg">
<path d="M1 5C0.723858 5 0.5 4.77614 0.5 4.5C0.5 4.22386 0.723858 4 1 4L1 5ZM41.3536 4.14645C41.5488 4.34171 41.5488 4.65829 41.3536 4.85355L38.1716 8.03553C37.9763 8.2308 37.6597 8.2308 37.4645 8.03553C37.2692 7.84027 37.2692 7.52369 37.4645 7.32843L40.2929 4.5L37.4645 1.67157C37.2692 1.47631 37.2692 1.15973 37.4645 0.964466C37.6597 0.769204 37.9763 0.769204 38.1716 0.964466L41.3536 4.14645ZM1 4L41 4V5L1 5L1 4Z" fill="#3F4353"/>
</svg>
