<svg width="50" height="34" viewBox="0 0 50 34" fill="none" xmlns="http://www.w3.org/2000/svg">
<path d="M41.8458 34V18.3575C41.8458 15.0881 40.4972 13.453 37.8001 13.452C35.1029 13.4511 33.7515 15.0862 33.7457 18.3575V34H25.7771V18.3575C25.7771 15.0881 24.4492 13.453 21.7935 13.452C19.0915 13.452 17.7429 15.0872 17.7477 18.3575V34H9.77765V17.4342C9.77765 14.0213 10.9625 11.4383 13.3321 9.68518C15.4185 8.11987 18.239 7.33721 21.7935 7.33721C25.397 7.33721 28.0518 8.26147 29.7578 10.11C31.2277 8.26147 33.9066 7.33721 37.7943 7.33721C41.3488 7.33721 44.1683 8.11987 46.2528 9.68518C48.6224 11.4374 49.8077 14.0204 49.8087 17.4342V34H41.8458Z" fill="white"/>
<path d="M25.2482 6.13217L33.1576 0.352557L33.0565 0C18.7837 1.74978 12.2932 2.9895 0 10.1158L0.114147 10.4394L1.0909 10.4495C1.00132 11.4335 0.845268 13.8653 1.04466 17.5223C-0.319323 21.4698 1.00999 24.1515 2.25838 27.0688C2.45633 24.0345 2.43611 20.7112 1.50414 17.4039C1.30908 13.7714 1.46947 11.3829 1.5576 10.4539L9.70686 10.5319C9.68495 12.1277 9.76555 13.7233 9.94815 15.3087C17.2305 17.8677 24.5547 15.3001 28.4429 8.99163C27.3636 7.78225 25.2482 6.13217 25.2482 6.13217Z" fill="white"/>
</svg>
