<svg width="34" height="34" viewBox="0 0 34 34" fill="none" xmlns="http://www.w3.org/2000/svg">
<path d="M13.6981 33.804C10.7287 33.1891 7.9579 31.8175 5.78272 29.8856C0.198481 24.926 -1.52735 17.1348 1.42268 10.2023C2.14713 8.49989 3.32489 6.77217 4.78417 5.27118L6.07069 3.94788L6.16143 11.6931C6.24829 19.1067 6.26786 19.4801 6.61855 20.4143C7.32012 22.2833 8.07225 23.4733 9.36705 24.7628C12.7117 28.0937 17.6177 28.925 21.7883 26.8675C25.7083 24.9336 28.1796 20.7284 27.8924 16.4809C27.6995 13.6277 26.74 11.5356 24.6684 9.45102C23.102 7.87479 21.259 6.84519 19.2525 6.42537C17.2111 5.99824 17.3091 5.93582 17.3091 7.66376V9.15553L18.4282 9.36174C22.7625 10.1604 25.629 14.4165 24.7256 18.7118C24.4371 20.0836 23.7935 21.295 22.7604 22.411C21.1903 24.1068 18.9814 24.9174 17.0526 24.9137C13.8633 24.9075 11.2002 23.0952 9.9095 20.4152C9.9095 20.4152 9.57139 19.6492 9.46273 19.1758C8.82373 16.3919 9.23217 10.5318 9.23217 10.5318L9.18269 1.96319L9.68853 1.70162C9.96674 1.55775 10.2336 1.44004 10.2815 1.44004C10.3294 1.44004 10.3902 5.37558 10.4166 10.1857C10.4166 10.1857 9.80234 16.4911 10.5614 18.9074C10.671 19.256 10.8789 19.8523 10.8789 19.8523C11.5443 21.208 12.6108 22.4005 13.9965 23.0569C15.0484 23.5552 15.578 23.7806 17.1342 23.7806C18.151 23.7806 19.0518 23.4597 20.0882 22.983C21.31 22.4211 22.7116 20.9312 23.2296 19.5709C24.6566 15.8231 22.6696 11.7909 18.8416 10.6665C17.2772 10.207 17.3091 10.1817 17.3091 11.8829V13.3688L18.06 13.5697C20.7669 14.2936 21.5929 17.9218 19.4679 19.7861C18.7171 20.4448 18.0406 20.736 16.8572 20.736C15.5926 20.736 14.3788 19.9706 13.7548 18.7966C13.3799 18.0914 13.3483 17.4225 13.3483 17.1162C13.3483 14.2864 13.287 9.19699 13.287 9.19699L13.2364 0.466898L13.625 0.370375C13.8387 0.317286 14.7026 0.185924 15.5447 0.0784577C18.4008 -0.286005 22.6261 0.648659 25.4648 2.27281C29.3348 4.48709 32.2631 8.2909 33.4824 12.6875C33.9018 14.1998 33.9485 14.6396 33.9485 17.0724C33.9485 19.4943 33.9007 19.9486 33.4902 21.4278C31.8319 27.4034 27.6136 31.675 21.582 33.4867C20.3126 33.868 19.718 33.9407 17.4781 33.9885C15.6705 34.027 14.4989 33.9698 13.6981 33.804Z" fill="white"/>
</svg>
