<svg width="70" height="34" viewBox="0 0 70 34" fill="none" xmlns="http://www.w3.org/2000/svg">
<path d="M36.1746 29.4768C34.8272 29.387 33.2737 29.1508 32.0483 28.7959C31.8188 28.7294 30.8685 28.3801 30.6267 28.2692C26.3608 26.2931 23.3889 21.9795 23.3889 16.975C23.3889 10.111 28.9734 4.51988 35.8419 4.51988C42.6494 4.51988 48.1961 10.0156 48.2915 16.8021H52.7903C52.695 7.53609 45.1311 0.0266113 35.8419 0.0266113C26.4972 0.0266113 18.8912 7.62813 18.8912 16.975C18.8912 23.4189 22.5151 29.0233 27.8212 31.8864C28.7793 32.3932 30.1543 32.9155 30.6212 33.0585C32.1337 33.5088 33.99 33.8082 35.6423 33.9335C36.2034 33.9756 38.1628 33.9978 38.7339 34H69.7144V29.5189H38.786C38.3746 29.5189 36.5771 29.5034 36.1746 29.4768ZM38.786 22.4408C38.4589 22.4408 36.7479 22.4297 36.4318 22.4031C35.8962 22.3577 35.12 22.2778 34.621 22.1636C34.0577 22.0128 33.5287 21.8132 33.2903 21.6823C31.6192 20.7786 30.4804 19.011 30.4804 16.975C30.4804 14.0132 32.8789 11.6113 35.8419 11.6113C38.7428 11.6113 41.1014 13.9189 41.1957 16.8021H45.5182C45.4272 11.5348 41.1336 7.28991 35.8419 7.28991C30.4914 7.28991 26.1545 11.6257 26.1545 16.975C26.1545 20.7475 28.3169 24.0055 31.4662 25.6012C31.9508 25.8851 32.8623 26.1823 33.1218 26.2499C34.0111 26.4839 35.2054 26.6436 36.1746 26.7145C36.5327 26.7445 38.287 26.7578 38.6574 26.76V26.7666H69.7133V22.4408H38.786ZM16.119 33.9834H11.5902V4.52986H4.97231V0H16.119V33.9834ZM0 6.79313V11.1489H4.97231V33.9834H9.32364V6.79313H0Z" fill="white"/>
</svg>
