<svg width="36" height="36" viewBox="0 0 36 36" fill="none" xmlns="http://www.w3.org/2000/svg">
<path d="M8.6008 22.8002C7.78967 22.8002 6.99676 22.5597 6.32235 22.109C5.64795 21.6583 5.12234 21.0178 4.812 20.2684C4.50167 19.519 4.42055 18.6943 4.57891 17.8988C4.73727 17.1033 5.128 16.3726 5.70166 15.7992C6.27533 15.2257 7.00617 14.8353 7.80176 14.6772C8.59734 14.5192 9.42192 14.6006 10.1712 14.9112C10.9205 15.2219 11.5609 15.7477 12.0113 16.4223C12.4617 17.0969 12.7019 17.8899 12.7016 18.701C12.7003 19.7881 12.2678 20.8302 11.499 21.5988C10.7302 22.3673 9.68786 22.7994 8.6008 22.8002ZM8.6008 16.2002C8.10619 16.2002 7.62269 16.3469 7.21143 16.6217C6.80018 16.8965 6.47964 17.2871 6.29036 17.744C6.10108 18.201 6.05156 18.7038 6.14805 19.1889C6.24455 19.674 6.48273 20.1196 6.83247 20.4694C7.18221 20.8191 7.62781 21.0573 8.11292 21.1538C8.59803 21.2503 9.10085 21.2007 9.55782 21.0115C10.0148 20.8222 10.4053 20.5017 10.6801 20.0904C10.9549 19.6791 11.1016 19.1956 11.1016 18.701C11.1012 18.0379 10.8376 17.4021 10.3687 16.9332C9.89977 16.4643 9.26392 16.2007 8.6008 16.2002Z" fill="#3F4353"/>
<path d="M13.4 32.2002C13.1878 32.2002 12.9843 32.1159 12.8343 31.9659C12.6843 31.8159 12.6 31.6124 12.6 31.4002V29.8002C12.6 28.7393 12.1786 27.7219 11.4284 26.9718C10.6783 26.2216 9.66087 25.8002 8.6 25.8002C7.53913 25.8002 6.52172 26.2216 5.77157 26.9718C5.02143 27.7219 4.6 28.7393 4.6 29.8002V31.4002C4.6 31.6124 4.51571 31.8159 4.36569 31.9659C4.21566 32.1159 4.01217 32.2002 3.8 32.2002C3.58783 32.2002 3.38434 32.1159 3.23431 31.9659C3.08429 31.8159 3 31.6124 3 31.4002V29.8002C3 28.315 3.59 26.8906 4.6402 25.8404C5.69041 24.7902 7.11479 24.2002 8.6 24.2002C10.0852 24.2002 11.5096 24.7902 12.5598 25.8404C13.61 26.8906 14.2 28.315 14.2 29.8002V31.4002C14.2 31.6124 14.1157 31.8159 13.9657 31.9659C13.8157 32.1159 13.6122 32.2002 13.4 32.2002Z" fill="#3F4353"/>
<path d="M13.399 31.1761C13.2469 31.176 13.0979 31.1325 12.9696 31.0507C12.8413 30.9689 12.7389 30.8522 12.6746 30.7143C12.6103 30.5764 12.5866 30.423 12.6064 30.2721C12.6262 30.1213 12.6886 29.9791 12.7862 29.8625L23.9863 16.4865C24.1248 16.3318 24.318 16.2371 24.5251 16.2223C24.7322 16.2074 24.9369 16.2737 25.0961 16.4071C25.2552 16.5405 25.3562 16.7305 25.3778 16.9369C25.3994 17.1434 25.3399 17.3502 25.2119 17.5137L14.0118 30.8897C13.9368 30.9793 13.8431 31.0513 13.7372 31.1008C13.6313 31.1503 13.5159 31.176 13.399 31.1761Z" fill="#3F4353"/>
<path d="M6.99922 13C6.78704 13 6.58356 12.9157 6.43353 12.7657C6.2835 12.6156 6.19922 12.4122 6.19922 12.2V5.8C6.19922 5.58783 6.2835 5.38434 6.43353 5.23431C6.58356 5.08429 6.78704 5 6.99922 5C7.21139 5 7.41487 5.08429 7.5649 5.23431C7.71493 5.38434 7.79922 5.58783 7.79922 5.8V12.2C7.79922 12.4122 7.71493 12.6156 7.5649 12.7657C7.41487 12.9157 7.21139 13 6.99922 13Z" fill="#3F4353"/>
<path d="M32.5996 6.6H5.39961C5.18744 6.6 4.98395 6.51571 4.83392 6.36568C4.68389 6.21565 4.59961 6.01217 4.59961 5.8C4.59961 5.58783 4.68389 5.38434 4.83392 5.23431C4.98395 5.08429 5.18744 5 5.39961 5H32.5996C32.8118 5 33.0153 5.08429 33.1653 5.23431C33.3153 5.38434 33.3996 5.58783 33.3996 5.8C33.3996 6.01217 33.3153 6.21565 33.1653 6.36568C33.0153 6.51571 32.8118 6.6 32.5996 6.6Z" fill="#3F4353"/>
<path d="M30.9992 24.2C30.787 24.2 30.5836 24.1157 30.4335 23.9657C30.2835 23.8157 30.1992 23.6122 30.1992 23.4V5.8C30.1992 5.58783 30.2835 5.38434 30.4335 5.23431C30.5836 5.08429 30.787 5 30.9992 5C31.2114 5 31.4149 5.08429 31.5649 5.23431C31.7149 5.38434 31.7992 5.58783 31.7992 5.8V23.4C31.7992 23.6122 31.7149 23.8157 31.5649 23.9657C31.4149 24.1157 31.2114 24.2 30.9992 24.2Z" fill="#3F4353"/>
<path d="M32.5992 24.2001H22.9992C22.787 24.2001 22.5836 24.1158 22.4335 23.9658C22.2835 23.8158 22.1992 23.6123 22.1992 23.4001C22.1992 23.1879 22.2835 22.9844 22.4335 22.8344C22.5836 22.6844 22.787 22.6001 22.9992 22.6001H32.5992C32.8114 22.6001 33.0149 22.6844 33.1649 22.8344C33.3149 22.9844 33.3992 23.1879 33.3992 23.4001C33.3992 23.6123 33.3149 23.8158 33.1649 23.9658C33.0149 24.1158 32.8114 24.2001 32.5992 24.2001Z" fill="#3F4353"/>
<path d="M26.2008 11.3998H16.6008C16.3886 11.3998 16.1851 11.3155 16.0351 11.1655C15.8851 11.0155 15.8008 10.812 15.8008 10.5998C15.8008 10.3876 15.8851 10.1841 16.0351 10.0341C16.1851 9.88409 16.3886 9.7998 16.6008 9.7998H26.2008C26.4129 9.7998 26.6164 9.88409 26.7665 10.0341C26.9165 10.1841 27.0008 10.3876 27.0008 10.5998C27.0008 10.812 26.9165 11.0155 26.7665 11.1655C26.6164 11.3155 26.4129 11.3998 26.2008 11.3998Z" fill="#3F4353"/>
<path d="M26.1996 14.6H13.3996C13.1874 14.6 12.984 14.5157 12.8339 14.3657C12.6839 14.2157 12.5996 14.0122 12.5996 13.8C12.5996 13.5878 12.6839 13.3843 12.8339 13.2343C12.984 13.0843 13.1874 13 13.3996 13H26.1996C26.4118 13 26.6153 13.0843 26.7653 13.2343C26.9153 13.3843 26.9996 13.5878 26.9996 13.8C26.9996 14.0122 26.9153 14.2157 26.7653 14.3657C26.6153 14.5157 26.4118 14.6 26.1996 14.6Z" fill="#3F4353"/>
</svg>
