<svg width="36" height="36" viewBox="0 0 36 36" fill="none" xmlns="http://www.w3.org/2000/svg">
<path d="M17.4347 3.00244V3.68273V6.41587V8.8929L9.39006 16.8616C9.3258 16.925 9.27482 17.0005 9.24002 17.0836C9.20521 17.1667 9.18728 17.2558 9.18726 17.3458V20.7592H3.68494C3.50258 20.7599 3.32797 20.8326 3.19953 20.9611C3.07108 21.0897 2.99931 21.2637 3.00001 21.4448V32.3694C3.00073 32.5496 3.07312 32.7222 3.20141 32.8496C3.32971 32.977 3.50351 33.0489 3.68494 33.0497H9.8722H26.3738H32.5664C32.7481 33.0493 32.9222 32.9775 33.0508 32.8501C33.1794 32.7226 33.252 32.5498 33.2527 32.3694V21.4448C33.253 21.355 33.2356 21.266 33.2012 21.183C33.1669 21.0999 33.1165 21.0243 33.0527 20.9607C32.989 20.897 32.9132 20.8464 32.8298 20.8118C32.7463 20.7773 32.6568 20.7594 32.5664 20.7592H27.0641V17.3458C27.0641 17.2558 27.0461 17.1667 27.0113 17.0836C26.9765 17.0005 26.9256 16.925 26.8613 16.8616L18.8113 8.84221V7.10149H22.2521C22.3425 7.1013 22.432 7.08342 22.5154 7.04885C22.5989 7.01428 22.6746 6.9637 22.7384 6.90002C22.8021 6.83634 22.8526 6.7608 22.8869 6.67772C22.9212 6.59465 22.9387 6.50566 22.9384 6.41587V3.68273C22.9376 3.50229 22.8651 3.32948 22.7365 3.20202C22.6079 3.07456 22.4338 3.00281 22.2521 3.00244H18.8113H17.4347ZM18.8113 4.36968H21.5618V5.73558H18.8113V4.36968ZM18.1465 10.1161L25.6889 17.6286V31.6891H24.3136V27.59C24.3136 26.0884 23.0737 24.8582 21.5618 24.8582C20.0499 24.8582 18.8113 26.0884 18.8113 27.59V31.6891H17.4347V27.59C17.4347 26.0884 16.2015 24.8582 14.6896 24.8582C13.1777 24.8582 11.9378 26.0884 11.9378 27.59V31.6891H10.5625V17.6286L18.1465 10.1161ZM18.125 14.614C16.2343 14.614 14.6896 16.1482 14.6896 18.0261C14.6896 19.9039 16.2343 21.4448 18.125 21.4448C20.0157 21.4448 21.5618 19.9039 21.5618 18.0261C21.5618 16.1482 20.0157 14.614 18.125 14.614ZM18.125 15.9799C19.2724 15.9799 20.1865 16.8864 20.1865 18.0261C20.1865 19.1657 19.2724 20.0789 18.125 20.0789C16.9776 20.0789 16.0595 19.1657 16.0595 18.0261C16.0595 16.8864 16.9776 15.9799 18.125 15.9799ZM4.37525 22.1251H9.18726V31.6891H4.37525V22.1251ZM27.0641 22.1251H31.8761V31.6891H27.0641V22.1251ZM5.74512 23.491V24.8582H7.81067V23.491H5.74512ZM28.4393 23.491V24.8582H30.5009V23.491H28.4393ZM5.74512 26.2241V27.59H7.81067V26.2241H5.74512ZM14.6896 26.2241C15.4634 26.2241 16.0595 26.8215 16.0595 27.59V31.6891H13.3143V27.59C13.3143 26.8215 13.9158 26.2241 14.6896 26.2241ZM21.5618 26.2241C22.3356 26.2241 22.9384 26.8215 22.9384 27.59V31.6891H20.1865V27.59C20.1865 26.8215 20.788 26.2241 21.5618 26.2241ZM28.4393 26.2241V27.59H30.5009V26.2241H28.4393Z" fill="#3F4353"/>
</svg>
