<svg width="36" height="36" viewBox="0 0 36 36" fill="none" xmlns="http://www.w3.org/2000/svg">
<path d="M31.1251 34H13.625C12.5895 34 11.75 33.1605 11.75 32.125C11.75 31.0895 12.5895 30.25 13.625 30.25H31.1251C32.1605 30.25 33.0001 31.0895 33.0001 32.125C33.0001 33.1605 32.1605 34 31.1251 34ZM13.625 31.4999C13.2798 31.4999 13.0002 31.7798 13.0002 32.125C13.0002 32.4702 13.2798 32.7501 13.625 32.7501H31.1251C31.4702 32.7501 31.7502 32.4702 31.7502 32.125C31.7502 31.7798 31.4702 31.4999 31.1251 31.4999H13.625Z" fill="#3F4353"/>
<path d="M23.6249 31.4998H21.1248C20.7797 31.4998 20.5 31.2202 20.5 30.875V22.1248C20.5 21.7797 20.7797 21.5 21.1248 21.5H23.6249C23.9701 21.5 24.25 21.7797 24.25 22.1248V30.875C24.25 31.2202 23.9701 31.4998 23.6249 31.4998ZM21.7499 30.2499H22.9998V22.7499H21.7499V30.2499Z" fill="#3F4353"/>
<path d="M31.1249 31.4998H28.6248C28.2797 31.4998 28 31.2202 28 30.875V22.1248C28 21.7797 28.2797 21.5 28.6248 21.5H31.1249C31.4701 21.5 31.75 21.7797 31.75 22.1248V30.875C31.75 31.2202 31.4701 31.4998 31.1249 31.4998ZM29.2499 30.2499H30.4998V22.7499H29.2499V30.2499Z" fill="#3F4353"/>
<path d="M16.1249 31.4998H13.6248C13.2797 31.4998 13 31.2202 13 30.875V22.1248C13 21.7797 13.2797 21.5 13.6248 21.5H16.1249C16.4701 21.5 16.75 21.7797 16.75 22.1248V30.875C16.75 31.2202 16.4701 31.4998 16.1249 31.4998ZM14.2499 30.2499H15.4998V22.7499H14.2499V30.2499Z" fill="#3F4353"/>
<path d="M31.1251 22.75H13.625C12.5895 22.75 11.75 21.9105 11.75 20.875C11.75 19.8395 12.5895 19 13.625 19H31.1251C32.1605 19 33.0001 19.8395 33.0001 20.875C33.0001 21.9105 32.1605 22.75 31.1251 22.75ZM13.625 20.2499C13.2798 20.2499 13.0002 20.5298 13.0002 20.875C13.0002 21.2202 13.2798 21.5001 13.625 21.5001H31.1251C31.4702 21.5001 31.7502 21.2202 31.7502 20.875C31.7502 20.5298 31.4702 20.2499 31.1251 20.2499H13.625Z" fill="#3F4353"/>
<path d="M31.75 19.6249H30.4998V18.136L22.375 14.0736L14.2499 18.136V19.6249H13V17.7499C12.9998 17.513 13.1337 17.2962 13.3456 17.1905L22.0955 12.8154C22.2713 12.7275 22.4785 12.7275 22.6542 12.8154L31.4044 17.1905C31.6161 17.2962 31.75 17.513 31.75 17.7499V19.6249Z" fill="#3F4353"/>
<path d="M9.25008 24.625C9.08437 24.625 8.92529 24.5591 8.80811 24.4419L5.86629 21.5001H4.875C3.83954 21.5001 3 20.6605 3 19.6251V5.875C3 4.83954 3.83954 4 4.875 4H18.6251C19.6605 4 20.5001 4.83954 20.5001 5.875V12.7499H19.2499V5.875C19.2499 5.52985 18.9702 5.24992 18.6251 5.24992H4.875C4.52985 5.24992 4.24992 5.52985 4.24992 5.875V19.6251C4.24992 19.9702 4.52985 20.2499 4.875 20.2499H6.12492C6.29063 20.2499 6.44971 20.3158 6.56689 20.433L8.625 22.4914V20.875C8.625 20.5298 8.90492 20.2499 9.25008 20.2499H11.1251V21.5001H9.87492V23.9999C9.87492 24.3451 9.59523 24.625 9.25008 24.625Z" fill="#3F4353"/>
<path d="M11.75 18.375C8.64339 18.375 6.125 15.8566 6.125 12.75C6.125 9.64339 8.64339 7.125 11.75 7.125C14.8566 7.125 17.375 9.64339 17.375 12.75H16.1251C16.1251 10.3339 14.1663 8.37515 11.75 8.37515C9.33392 8.37515 7.37515 10.3339 7.37515 12.75C7.37515 15.1663 9.33392 17.1251 11.75 17.1251V18.375Z" fill="#3F4353"/>
<path d="M11.1255 14.625C10.9598 14.625 10.8007 14.5591 10.6835 14.4419L9.43359 13.192L10.3173 12.3083L11.1255 13.1164L13.1836 11.0581L14.0673 11.942L11.5672 14.4419C11.45 14.5591 11.2912 14.625 11.1255 14.625Z" fill="#3F4353"/>
</svg>
