<svg width="36" height="36" viewBox="0 0 36 36" fill="none" xmlns="http://www.w3.org/2000/svg">
<path d="M18 19.7268C17.9115 19.7267 17.8238 19.7106 17.7411 19.6793L2.46852 13.8611C2.33072 13.8087 2.21212 13.7156 2.12843 13.5942C2.04475 13.4728 1.99994 13.3289 1.99994 13.1814C1.99994 13.034 2.04475 12.89 2.12843 12.7687C2.21212 12.6473 2.33072 12.5542 2.46852 12.5017L17.7411 6.68363C17.9079 6.62043 18.0921 6.62043 18.2589 6.68363L33.5314 12.5017C33.6692 12.5542 33.7878 12.6473 33.8715 12.7687C33.9552 12.89 34 13.034 34 13.1814C34 13.3289 33.9552 13.4728 33.8715 13.5942C33.7878 13.7156 33.6692 13.8087 33.5314 13.8611L18.2589 19.6793C18.1762 19.7106 18.0884 19.7267 18 19.7268ZM4.77038 13.1814L18 18.2214L31.2296 13.1814L18 8.1415L4.77038 13.1814Z" fill="#3F4353"/>
<path d="M18 29.9086C17.9115 29.9085 17.8238 29.8924 17.7411 29.861L8.28663 26.261C8.14887 26.2086 8.03032 26.1154 7.94667 25.9941C7.86303 25.8727 7.81825 25.7287 7.81827 25.5813V15.3996C7.81827 15.2067 7.89489 15.0218 8.03128 14.8854C8.16767 14.749 8.35265 14.6724 8.54553 14.6724C8.73841 14.6724 8.9234 14.749 9.05979 14.8854C9.19617 15.0218 9.2728 15.2067 9.2728 15.3996V25.0795L18 28.4031L26.7271 25.0795V15.3996C26.7271 15.2067 26.8038 15.0218 26.9402 14.8854C27.0765 14.749 27.2615 14.6724 27.4544 14.6724C27.6473 14.6724 27.8323 14.749 27.9687 14.8854C28.105 15.0218 28.1817 15.2067 28.1817 15.3996V25.5813C28.1817 25.7287 28.1369 25.8727 28.0533 25.9941C27.9696 26.1154 27.8511 26.2086 27.7133 26.261L18.2589 29.861C18.1762 29.8924 18.0884 29.9085 18 29.9086Z" fill="#3F4353"/>
<path d="M5.63736 28.454C5.44448 28.454 5.25949 28.3774 5.12311 28.241C4.98672 28.1046 4.9101 27.9196 4.9101 27.7267V14.2897C4.91008 14.1081 4.97803 13.933 5.10059 13.7989C5.22314 13.6649 5.39143 13.5815 5.57234 13.5653L17.9358 12.457C18.128 12.4398 18.3191 12.4996 18.4671 12.6232C18.6152 12.7469 18.708 12.9243 18.7253 13.1164C18.7425 13.3086 18.6827 13.4997 18.5591 13.6477C18.4354 13.7958 18.258 13.8886 18.0659 13.9059L6.36462 14.9549V27.7267C6.36462 27.9196 6.288 28.1046 6.15161 28.241C6.01522 28.3774 5.83024 28.454 5.63736 28.454Z" fill="#3F4353"/>
<path d="M7.09134 32.8176H4.18228C3.9894 32.8176 3.80442 32.741 3.66803 32.6046C3.53164 32.4682 3.45502 32.2832 3.45502 32.0904V29.1813C3.45502 28.6027 3.68488 28.0477 4.09405 27.6385C4.50321 27.2294 5.05816 26.9995 5.63681 26.9995C6.21546 26.9995 6.77041 27.2294 7.17957 27.6385C7.58874 28.0477 7.8186 28.6027 7.8186 29.1813V32.0904C7.8186 32.2832 7.74198 32.4682 7.60559 32.6046C7.4692 32.741 7.28422 32.8176 7.09134 32.8176ZM4.90955 31.3631H6.36407V29.1813C6.36407 28.9884 6.28745 28.8034 6.15106 28.6671C6.01467 28.5307 5.82969 28.454 5.63681 28.454C5.44393 28.454 5.25894 28.5307 5.12256 28.6671C4.98617 28.8034 4.90955 28.9884 4.90955 29.1813V31.3631Z" fill="#3F4353"/>
</svg>
