<svg width="61" height="61" viewBox="0 0 61 61" fill="none" xmlns="http://www.w3.org/2000/svg">
<circle cx="30.5" cy="30.5" r="30.5" fill="#74D414"/>
<path fill-rule="evenodd" clip-rule="evenodd" d="M40.1522 23.1556C41.7292 23.1556 43.0076 21.902 43.0076 20.3557C43.0076 18.8093 41.7292 17.5557 40.1522 17.5557C38.5753 17.5557 37.2969 18.8093 37.2969 20.3557C37.2969 21.902 38.5753 23.1556 40.1522 23.1556Z" stroke="white" stroke-width="1.5" stroke-linecap="round" stroke-linejoin="round"/>
<path fill-rule="evenodd" clip-rule="evenodd" d="M40.1522 32.8002C41.7292 32.8002 43.0076 31.5466 43.0076 30.0002C43.0076 28.4538 41.7292 27.2002 40.1522 27.2002C38.5753 27.2002 37.2969 28.4538 37.2969 30.0002C37.2969 31.5466 38.5753 32.8002 40.1522 32.8002Z" stroke="white" stroke-width="1.5" stroke-linecap="round" stroke-linejoin="round"/>
<path fill-rule="evenodd" clip-rule="evenodd" d="M23.0194 32.8002C24.5964 32.8002 25.8748 31.5466 25.8748 30.0002C25.8748 28.4538 24.5964 27.2002 23.0194 27.2002C21.4424 27.2002 20.1641 28.4538 20.1641 30.0002C20.1641 31.5466 21.4424 32.8002 23.0194 32.8002Z" stroke="white" stroke-width="1.5" stroke-linecap="round" stroke-linejoin="round"/>
<path fill-rule="evenodd" clip-rule="evenodd" d="M40.1522 42.4447C41.7292 42.4447 43.0076 41.1911 43.0076 39.6447C43.0076 38.0983 41.7292 36.8447 40.1522 36.8447C38.5753 36.8447 37.2969 38.0983 37.2969 39.6447C37.2969 41.1911 38.5753 42.4447 40.1522 42.4447Z" stroke="white" stroke-width="1.5" stroke-linecap="round" stroke-linejoin="round"/>
<path d="M37.2969 20.3555H34.1241C32.7218 20.3555 31.5859 21.4692 31.5859 22.8443V37.1554C31.5859 38.5305 32.7218 39.6443 34.1241 39.6443H37.2969" stroke="white" stroke-width="1.5" stroke-linecap="round" stroke-linejoin="round"/>
<path d="M37.2966 30.0006H25.875" stroke="white" stroke-width="1.5" stroke-linecap="round" stroke-linejoin="round"/>
</svg>
