<svg width="61" height="61" viewBox="0 0 61 61" fill="none" xmlns="http://www.w3.org/2000/svg">
<circle cx="30.5" cy="30.5" r="30.5" fill="#74D414"/>
<path d="M27.8281 29.8828V33.2213C27.828 33.9553 28.2509 34.6263 28.9205 34.9544L29.6849 35.3292C30.7976 35.8745 32.1071 35.8745 33.2198 35.3292L33.9842 34.9544C34.6537 34.6263 35.0767 33.9553 35.0765 33.2213V29.8828" stroke="white" stroke-width="1.5" stroke-linecap="round" stroke-linejoin="round"/>
<path fill-rule="evenodd" clip-rule="evenodd" d="M31.4523 42.9185C38.7308 42.9185 44.6312 37.1326 44.6312 29.9954C44.6312 22.8581 38.7308 17.0723 31.4523 17.0723C24.1738 17.0723 18.2734 22.8581 18.2734 29.9954C18.2734 37.1326 24.1738 42.9185 31.4523 42.9185Z" stroke="white" stroke-width="1.5" stroke-linecap="round" stroke-linejoin="round"/>
<path fill-rule="evenodd" clip-rule="evenodd" d="M25.469 28.7252L29.9894 30.9394C30.9142 31.3918 32.002 31.3918 32.9269 30.9394L37.4429 28.7252C37.814 28.5438 38.0486 28.172 38.0486 27.7653C38.0486 27.3586 37.814 26.9869 37.4429 26.8054L32.9181 24.5913C31.9936 24.1375 30.9051 24.1375 29.9806 24.5913L25.469 26.8054C25.0978 26.9869 24.8633 27.3586 24.8633 27.7653C24.8633 28.172 25.0978 28.5438 25.469 28.7252V28.7252Z" stroke="white" stroke-width="1.5" stroke-linecap="round" stroke-linejoin="round"/>
<path d="M38.0447 27.7646V30.3492" stroke="white" stroke-width="1.5" stroke-linecap="round" stroke-linejoin="round"/>
</svg>
