<svg width="61" height="61" viewBox="0 0 61 61" fill="none" xmlns="http://www.w3.org/2000/svg">
<circle cx="30.5" cy="30.5" r="30.5" fill="#74D414"/>
<path d="M24.2761 39.704C23.493 39.148 22.7791 38.5066 22.1523 37.7866" stroke="white" stroke-width="1.5" stroke-linecap="round" stroke-linejoin="round"/>
<path d="M19.9258 25.9999C20.6886 23.8892 22.0265 22.0465 23.7683 20.6665" stroke="white" stroke-width="1.5" stroke-linecap="round" stroke-linejoin="round"/>
<path d="M19.2149 30C19.2149 31.4053 19.4733 32.7467 19.9261 34" stroke="white" stroke-width="1.5" stroke-linecap="round" stroke-linejoin="round"/>
<path d="M40.1077 19.2173C41.375 19.2173 42.403 20.2253 42.403 21.468C42.403 22.7106 41.375 23.7186 40.1077 23.7186C38.8405 23.7186 37.8125 22.7106 37.8125 21.468C37.8139 20.2253 38.8418 19.2173 40.1077 19.2173" stroke="white" stroke-width="1.5" stroke-linecap="round" stroke-linejoin="round"/>
<path d="M38.3239 20.0707C36.3645 18.764 33.9999 18 31.4531 18C30.213 18 29.0178 18.184 27.8906 18.52" stroke="white" stroke-width="1.5" stroke-linecap="round" stroke-linejoin="round"/>
<path d="M27.8906 41.4802C29.0178 41.8162 30.213 42.0002 31.4531 42.0002C38.2123 42.0002 43.6907 36.6282 43.6907 30.0002C43.6907 29.2762 43.6145 28.5708 43.4894 27.8828" stroke="white" stroke-width="1.5" stroke-linecap="round" stroke-linejoin="round"/>
<path fill-rule="evenodd" clip-rule="evenodd" d="M35.5294 31.6668C35.5294 33.8668 31.4503 35.3335 31.4503 35.3335C31.4503 35.3335 27.3711 33.8668 27.3711 31.6668V27.2388L30.3434 26.1895C31.0587 25.9375 31.8391 25.9375 32.5543 26.1895L35.5294 27.2388V31.6668Z" stroke="white" stroke-width="1.5" stroke-linecap="round" stroke-linejoin="round"/>
</svg>
