<svg width="61" height="61" viewBox="0 0 61 61" fill="none" xmlns="http://www.w3.org/2000/svg">
<circle cx="30.5" cy="30.5" r="30.5" fill="#74D414"/>
<path fill-rule="evenodd" clip-rule="evenodd" d="M30.4254 42.8874C37.3077 42.8874 42.8869 37.3082 42.8869 30.4259C42.8869 23.5436 37.3077 17.9644 30.4254 17.9644C23.5431 17.9644 17.9639 23.5436 17.9639 30.4259C17.9639 37.3082 23.5431 42.8874 30.4254 42.8874Z" stroke="white" stroke-width="1.44643" stroke-linecap="round" stroke-linejoin="round"/>
<path d="M28.8761 33.6401V34.7856H24.5137V33.6401H26.099V27.7849C26.0373 27.8775 25.9331 27.9816 25.7866 28.0974C25.6477 28.2054 25.4896 28.3134 25.3121 28.4214C25.1347 28.5216 24.9496 28.6065 24.7567 28.6759C24.5716 28.7454 24.4019 28.7801 24.2476 28.7801V27.5998C24.4559 27.5998 24.6641 27.5458 24.8724 27.4378C25.0884 27.3298 25.289 27.2064 25.4741 27.0675C25.6593 26.9209 25.8059 26.7898 25.9139 26.6741C26.0296 26.5584 26.0913 26.4966 26.099 26.4889H27.4066V33.6401H28.8761ZM29.5339 30.6199C29.5339 30.1185 29.6226 29.6286 29.8 29.1504C29.9775 28.6644 30.2359 28.2246 30.5753 27.8312C30.9225 27.4301 31.3429 27.1138 31.8366 26.8824C32.3303 26.6432 32.8896 26.5236 33.5145 26.5236C34.255 26.5236 34.8953 26.6934 35.4353 27.0328C35.9753 27.3645 36.3765 27.7926 36.6388 28.3172L35.6205 28.9999C35.4662 28.6682 35.2695 28.4059 35.0303 28.2131C34.7989 28.0202 34.5443 27.8852 34.2666 27.8081C33.9966 27.7309 33.7305 27.6924 33.4682 27.6924C33.0362 27.6924 32.6582 27.7811 32.3342 27.9585C32.0102 28.1282 31.7363 28.3558 31.5126 28.6412C31.2966 28.9266 31.1308 29.2468 31.015 29.6016C30.907 29.9565 30.853 30.3114 30.853 30.6662C30.853 31.0596 30.9186 31.4415 31.0498 31.8118C31.1809 32.1744 31.3622 32.4984 31.5936 32.7838C31.8328 33.0615 32.1143 33.2814 32.4383 33.4434C32.7623 33.6054 33.1172 33.6864 33.5029 33.6864C33.7652 33.6864 34.039 33.6401 34.3245 33.5475C34.6099 33.4549 34.8722 33.3122 35.1113 33.1194C35.3582 32.9188 35.551 32.6565 35.6899 32.3325L36.766 32.9458C36.5963 33.3546 36.3302 33.7018 35.9676 33.9872C35.6128 34.2726 35.2116 34.4886 34.7642 34.6352C34.3245 34.7818 33.8886 34.8551 33.4566 34.8551C32.878 34.8551 32.3496 34.7355 31.8713 34.4964C31.393 34.2495 30.9803 33.9255 30.6332 33.5244C30.286 33.1155 30.016 32.6604 29.8232 32.1589C29.6303 31.6498 29.5339 31.1368 29.5339 30.6199Z" fill="white"/>
</svg>
