<svg width="25" height="24" viewBox="0 0 25 24" fill="none" xmlns="http://www.w3.org/2000/svg">
<path fill-rule="evenodd" clip-rule="evenodd" d="M24.4993 12.0272C24.5688 5.51287 19.427 0.14389 12.9651 0.000717078C6.36417 -0.0708694 0.944483 5.22653 0.875 11.8125C0.875 18.3269 6.08624 23.5527 12.6177 23.6243C19.0796 23.6958 24.4298 18.5416 24.4993 12.0272ZM10.2713 5.36932H15.1037C17.3274 5.36932 19.1307 7.1726 19.1307 9.3963V14.2287C19.1307 16.4524 17.3274 18.2557 15.1037 18.2557H10.2713C8.0476 18.2557 6.24432 16.4524 6.24432 14.2287V9.3963C6.24432 7.1726 8.0476 5.36932 10.2713 5.36932Z" fill="#999999"/>
<path d="M15.9091 11.8125C15.9091 13.5917 14.4667 15.0341 12.6875 15.0341C10.9083 15.0341 9.46591 13.5917 9.46591 11.8125C9.46591 10.0333 10.9083 8.59091 12.6875 8.59091C14.4667 8.59091 15.9091 10.0333 15.9091 11.8125Z" fill="#999999"/>
<path d="M16.9829 8.05397C16.9829 8.35051 16.7426 8.59091 16.446 8.59091C16.1495 8.59091 15.9091 8.35051 15.9091 8.05397C15.9091 7.75743 16.1495 7.51704 16.446 7.51704C16.7426 7.51704 16.9829 7.75743 16.9829 8.05397Z" fill="#999999"/>
</svg>
