<svg width="12" height="16" viewBox="0 0 12 16" fill="none" xmlns="http://www.w3.org/2000/svg">
<path d="M10.2359 6.58835V4.706C10.2359 2.35306 8.35352 0.470703 6.00057 0.470703C3.64763 0.470703 1.76528 2.35306 1.76528 4.706V6.58835C0.96528 6.58835 0.353516 7.20011 0.353516 8.00011V14.1178C0.353516 14.8707 0.96528 15.5295 1.76528 15.5295H10.2359C11.0359 15.5295 11.6476 14.8707 11.6476 14.1178V8.00011C11.6476 7.20011 11.0359 6.58835 10.2359 6.58835ZM2.70646 4.706C2.70646 2.8707 4.16528 1.41188 6.00057 1.41188C7.83587 1.41188 9.29469 2.8707 9.29469 4.706V6.58835H2.70646V4.706ZM6.47116 11.6707V12.706C6.47116 12.9883 6.28293 13.1766 6.00057 13.1766C5.71822 13.1766 5.52999 12.9883 5.52999 12.706V11.6707C4.96528 11.4825 4.58881 10.9648 4.58881 10.3531C4.58881 9.55306 5.20057 8.94129 6.00057 8.94129C6.80057 8.94129 7.41234 9.55306 7.41234 10.3531C7.41234 10.9648 7.03587 11.4825 6.47116 11.6707Z" fill="#262F1D"/>
</svg>
