<svg width="64" height="64" viewBox="0 0 64 64" fill="none" xmlns="http://www.w3.org/2000/svg">
<circle cx="32" cy="32" r="32" fill="#74D414"/>
<path fill-rule="evenodd" clip-rule="evenodd" d="M26.668 21.3337L28.4013 19.167C28.6546 18.851 29.0373 18.667 29.4426 18.667H34.5613C34.9666 18.667 35.3493 18.851 35.6026 19.167L37.3346 21.3337V21.3337V22.667C37.3346 23.403 36.7373 24.0003 36.0013 24.0003H28.0013C27.2653 24.0003 26.668 23.403 26.668 22.667V21.3337V21.3337H26.668Z" stroke="white" stroke-width="1.5" stroke-linecap="round" stroke-linejoin="round"/>
<path d="M26.668 38.6667H29.3346" stroke="white" stroke-width="1.5" stroke-linecap="round" stroke-linejoin="round"/>
<path d="M26.668 28.0007H37.3346" stroke="white" stroke-width="1.5" stroke-linecap="round" stroke-linejoin="round"/>
<path d="M26.668 33.3337H32.0013" stroke="white" stroke-width="1.5" stroke-linecap="round" stroke-linejoin="round"/>
<path d="M36.474 44.0002H24.0007C22.5273 44.0002 21.334 42.8068 21.334 41.3335V24.0002C21.334 22.5268 22.5273 21.3335 24.0007 21.3335H26.6673" stroke="white" stroke-width="1.5" stroke-linecap="round" stroke-linejoin="round"/>
<path d="M37.334 21.3335H40.0007C41.474 21.3335 42.6673 22.5268 42.6673 24.0002V35.3828" stroke="white" stroke-width="1.5" stroke-linecap="round" stroke-linejoin="round"/>
<path d="M42.3722 38.8149L39.4095 41.7776L37.6309 40.0003" stroke="white" stroke-width="1.5" stroke-linecap="round" stroke-linejoin="round"/>
<path d="M40.0013 45.3337C37.056 45.3337 34.668 42.9457 34.668 40.0003C34.668 37.055 37.056 34.667 40.0013 34.667C42.948 34.667 45.3346 37.055 45.3346 40.0003C45.3346 42.9457 42.948 45.3337 40.0013 45.3337" stroke="white" stroke-width="1.5" stroke-linecap="round" stroke-linejoin="round"/>
</svg>
