<svg width="64" height="64" viewBox="0 0 64 64" fill="none" xmlns="http://www.w3.org/2000/svg">
<circle cx="32" cy="32" r="32" fill="#74D414"/>
<path fill-rule="evenodd" clip-rule="evenodd" d="M35.9593 19.1136C40.33 19.7709 43.786 23.2256 44.442 27.5963C44.562 28.3949 43.9193 29.1109 43.1113 29.1109H35.7767C35.0407 29.1109 34.4433 28.5136 34.4433 27.7776V20.4429C34.4433 19.6349 35.1607 18.9936 35.9593 19.1136V19.1136Z" stroke="white" stroke-width="1.5" stroke-linecap="round" stroke-linejoin="round"/>
<path fill-rule="evenodd" clip-rule="evenodd" d="M42.5781 39.452C43.5368 38.1573 44.1928 36.6253 44.4421 34.96C44.5621 34.1613 43.9194 33.4453 43.1114 33.4453H37.6621C36.4741 33.4453 35.8794 34.8813 36.7194 35.7213L40.5741 39.576C41.1421 40.1426 42.0994 40.0973 42.5781 39.452V39.452Z" stroke="white" stroke-width="1.5" stroke-linecap="round" stroke-linejoin="round"/>
<path fill-rule="evenodd" clip-rule="evenodd" d="M28.6122 24.8879C23.1016 25.7065 19.0416 30.9719 20.1976 36.9172C20.9669 40.8732 24.1642 44.0559 28.1229 44.8092C31.1242 45.3799 33.9482 44.6239 36.1122 43.0252C36.7602 42.5465 36.8096 41.5865 36.2402 41.0172L30.5016 35.2785C30.2509 35.0279 30.1109 34.6892 30.1109 34.3359V26.2159C30.1109 25.4145 29.4056 24.7705 28.6122 24.8879V24.8879Z" stroke="white" stroke-width="1.5" stroke-linecap="round" stroke-linejoin="round"/>
</svg>
