<svg width="64" height="64" viewBox="0 0 64 64" fill="none" xmlns="http://www.w3.org/2000/svg">
<circle cx="32" cy="32" r="32" fill="#74D414"/>
<path fill-rule="evenodd" clip-rule="evenodd" d="M30.216 25.7949L25.416 28.4616C24.9485 28.7197 24.6582 29.2116 24.6582 29.7456C24.6582 30.2797 24.9485 30.7715 25.416 31.0296L30.216 33.6963C31.326 34.3109 32.6741 34.3109 33.784 33.6963L38.584 31.0296C39.0516 30.7715 39.3419 30.2797 39.3419 29.7456C39.3419 29.2116 39.0516 28.7197 38.584 28.4616L33.784 25.7949C32.6741 25.1803 31.326 25.1803 30.216 25.7949Z" stroke="white" stroke-width="1.5" stroke-linecap="round" stroke-linejoin="round"/>
<path d="M39.3327 29.7427V33.3333" stroke="white" stroke-width="1.5" stroke-linecap="round" stroke-linejoin="round"/>
<path d="M27.334 32.0879V35.2679C27.3336 36.0044 27.702 36.6921 28.3153 37.0999L29.5633 37.9306C31.0394 38.9123 32.9605 38.9123 34.4367 37.9306L35.6847 37.0999C36.2985 36.6924 36.6673 36.0046 36.6673 35.2679V32.0892" stroke="white" stroke-width="1.5" stroke-linecap="round" stroke-linejoin="round"/>
<rect x="20" y="20" width="24" height="24" rx="5" stroke="white" stroke-width="1.5" stroke-linecap="round" stroke-linejoin="round"/>
</svg>
