<svg width="61" height="61" viewBox="0 0 61 61" fill="none" xmlns="http://www.w3.org/2000/svg">
<circle cx="30.5" cy="30.5" r="30.5" fill="#74D414"/>
<path fill-rule="evenodd" clip-rule="evenodd" d="M30.6435 35.3566H24C23.172 35.3566 22.5 34.6846 22.5 33.8566V26.1436C22.5 25.3156 23.172 24.6436 24 24.6436H30.6435C31.4715 24.6436 32.1435 25.3156 32.1435 26.1436V33.8581C32.1435 34.6861 31.4715 35.3566 30.6435 35.3566Z" stroke="white" stroke-width="1.5" stroke-linecap="round" stroke-linejoin="round"/>
<path d="M39.5459 20.4541C44.818 25.7261 44.818 34.2739 39.5459 39.5459C34.2738 44.818 25.7261 44.818 20.4541 39.5459C15.182 34.2738 15.182 25.7261 20.4541 20.4541C25.7261 15.182 34.2739 15.182 39.5459 20.4541" stroke="white" stroke-width="1.5" stroke-linecap="round" stroke-linejoin="round"/>
<path d="M32.1445 28.9288L35.1385 25.9348C35.2795 25.7938 35.47 25.7158 35.6695 25.7158H36.751C37.165 25.7158 37.501 26.0518 37.501 26.4658V33.5368C37.501 33.9508 37.165 34.2868 36.751 34.2868H35.6695C35.47 34.2868 35.2795 34.2073 35.1385 34.0678L32.1445 31.0738" stroke="white" stroke-width="1.5" stroke-linecap="round" stroke-linejoin="round"/>
</svg>
