<svg width="64" height="64" viewBox="0 0 64 64" fill="none" xmlns="http://www.w3.org/2000/svg">
<g opacity="0.8" clip-path="url(#clip0_2416_14142)">
<path d="M31.746 21.0496C31.4381 21.0496 31.1883 21.2995 31.1883 21.6074C31.1883 21.9152 31.4382 22.1651 31.746 22.1651C32.054 22.1651 32.3038 21.9152 32.3038 21.6074C32.3038 21.2995 32.054 21.0496 31.746 21.0496Z" fill="#3F4353" stroke="#3F4353" stroke-width="0.1"/>
<path d="M30.7318 27.1429H32.7628C33.0708 27.1429 33.3206 27.3927 33.3204 27.7008L30.7318 27.1429ZM30.7318 27.1429C30.4917 27.1429 30.2786 27.2966 30.2027 27.5243M30.7318 27.1429L30.2027 27.5243M30.2027 27.5243L29.7162 28.9835M30.2027 27.5243L29.7162 28.9835M29.7162 28.9835L29.2298 27.5244C29.2298 27.5244 29.2298 27.5244 29.2298 27.5244C29.1539 27.2966 28.9407 27.143 28.7007 27.143H28.1207L27.2108 23.5033L27.2108 23.5033L27.1623 23.5154M29.7162 28.9835L33.3204 27.7008C33.3204 28.0087 33.0707 28.2585 32.7627 28.2585H31.1337L30.2453 30.9237C30.1693 31.1515 29.9562 31.3051 29.7161 31.3051C29.4761 31.3051 29.2629 31.1515 29.187 30.9237C29.187 30.9237 29.187 30.9237 29.187 30.9237L28.2986 28.2585H27.6851C27.4292 28.2585 27.206 28.0844 27.144 27.8361C27.144 27.8361 27.144 27.8361 27.144 27.8361L26.6696 25.9384L26.1951 27.8361C26.1951 27.8361 26.1951 27.8361 26.1951 27.8361C26.1331 28.0843 25.91 28.2585 25.654 28.2585H23.623C23.315 28.2585 23.0652 28.0088 23.0652 27.7008C23.0652 27.3928 23.315 27.143 23.623 27.143H25.2188L26.1286 23.5033L26.1286 23.5033L26.1771 23.5154M27.1623 23.5154C27.1058 23.2894 26.9027 23.1309 26.6697 23.1309C26.4367 23.1309 26.2336 23.2894 26.1771 23.5154M27.1623 23.5154L28.0816 27.193L27.1623 23.5154ZM26.1771 23.5154L25.2578 27.193L26.1771 23.5154Z" fill="#3F4353" stroke="#3F4353" stroke-width="0.1"/>
<path d="M36.6432 32.6538C38.6497 34.4829 43.63 39.0227 44.1941 39.5381C45.2671 40.4907 45.3658 42.2168 44.2907 43.291C43.2795 44.303 41.6433 44.3024 40.6321 43.2929M36.6432 32.6538L40.6674 43.2576M36.6432 32.6538C36.3322 32.3704 36.0927 32.152 35.9521 32.0238C38.1922 28.432 37.6928 23.6963 34.6402 20.6437C31.0488 17.0523 25.2356 17.0519 21.6437 20.6437C18.0523 24.2352 18.0519 30.0483 21.6437 33.6403C24.6947 36.6912 29.4245 37.1898 33.0132 34.9586M36.6432 32.6538L33.022 34.8941M40.6321 43.2929L40.6674 43.2576M40.6321 43.2929C40.6323 43.2931 40.6323 43.2932 40.6324 43.2932L40.6674 43.2576M40.6321 43.2929C40.5825 43.2394 33.5153 35.5079 33.0132 34.9586M40.6674 43.2576C40.6616 43.2519 33.7379 35.6773 33.0731 34.95L33.022 34.8941M33.0132 34.9586C33.025 34.9512 33.0368 34.9439 33.0486 34.9364L33.022 34.8941M33.0132 34.9586C33.0042 34.9487 32.9973 34.9412 32.9926 34.936L32.9851 34.9278L33.022 34.8941M33.9374 34.3024L33.9371 34.3021L33.9368 34.3018C34.1863 34.0997 34.4265 33.8835 34.6551 33.6549C34.8827 33.4273 35.0982 33.1877 35.3 32.9387L36.3902 33.9326L34.9312 35.3915L33.9548 34.3207L33.9179 34.3544L33.9548 34.3207C33.9489 34.3142 33.9429 34.3081 33.9374 34.3024ZM33.8661 32.8661L33.9015 32.9015L33.8661 32.8661C30.7095 36.0233 25.6008 36.0196 22.4325 32.8514C19.2772 29.6961 19.2766 24.5883 22.4325 21.4325C25.5879 18.2771 30.6957 18.2765 33.8514 21.4325C37.0266 24.6076 37.0206 29.7116 33.8661 32.8661ZM43.5019 42.5022L43.5019 42.5022C42.8943 43.1101 41.9064 43.0619 41.3657 42.4461L41.365 42.4454L35.6837 36.2167L37.2154 34.685L43.4453 40.3648C43.4454 40.3648 43.4454 40.3648 43.4454 40.3649C44.1061 40.9762 44.0703 41.9342 43.5019 42.5022ZM43.5372 42.5375C42.9092 43.166 41.8878 43.1165 41.3281 42.4791L43.5372 42.5375Z" fill="#3F4353" stroke="#3F4353" stroke-width="0.1"/>
<path d="M32.4309 31.4299L32.431 31.4298C34.6426 29.2187 34.813 25.7323 32.8273 23.3196C32.6316 23.0818 32.6657 22.7303 32.9036 22.5345C33.1415 22.3387 33.493 22.373 33.6887 22.6108L33.6501 22.6425L33.6887 22.6108C36.0056 25.4259 35.841 29.5978 33.2198 32.2186C33.2198 32.2187 33.2198 32.2187 33.2198 32.2187M32.4309 31.4299L23.1315 32.1832C25.9053 34.9575 30.4104 34.9578 33.1844 32.1833L33.2198 32.2187M32.4309 31.4299C30.0737 33.7876 26.2427 33.7879 23.885 31.4297L23.885 31.4297C21.5272 29.0724 21.527 25.2415 23.8851 22.8839L23.8851 22.8839C25.4098 21.3592 27.6549 20.7625 29.7447 21.3269L29.7447 21.3269C30.042 21.4071 30.3483 21.2313 30.4286 20.9339L30.4286 20.9339C30.5089 20.6365 30.3329 20.3303 30.0356 20.25L30.0225 20.2982L30.0356 20.25C27.5616 19.5816 24.9026 20.2886 23.0963 22.0949M32.4309 31.4299L23.0962 32.2185M33.2198 32.2187C30.4263 35.0127 25.8894 35.0124 23.0962 32.2185M33.2198 32.2187L23.0962 32.2185M23.0963 22.095C20.3025 24.8882 20.3022 29.4251 23.0962 32.2185M23.0963 22.095L23.1316 22.1303L23.0963 22.0949M23.0963 22.095C23.0963 22.095 23.0963 22.095 23.0963 22.0949M23.0963 22.095L23.0963 22.0949" fill="#3F4353" stroke="#3F4353" stroke-width="0.1"/>
</g>
<circle cx="32" cy="32" r="32" fill="#74D414"/>
<g opacity="0.8" clip-path="url(#clip1_2416_14142)">
<path d="M44.3594 20.9385H42.4595L42.4331 20.8747L42.8024 20.5637C43.0096 20.3893 43.0579 20.0894 42.9159 19.8588C42.4278 19.0658 41.7496 18.3878 40.9548 17.8981C40.724 17.756 40.4241 17.8043 40.2496 18.0115L39.9389 18.3805L39.5604 18.2237L39.6016 17.7429C39.6248 17.473 39.4468 17.2268 39.1833 17.1642C38.7288 17.0561 38.2625 17.0012 37.797 17.001C37.7969 17.001 37.7967 17.001 37.7966 17.001C37.3312 17.0012 36.8649 17.0561 36.4104 17.1642C36.1468 17.2268 35.9689 17.473 35.9921 17.7429L36.0332 18.2237L35.6548 18.3805L35.344 18.0115C35.1696 17.8043 34.8696 17.7561 34.6389 17.8982C33.844 18.3878 33.1658 19.0658 32.6777 19.8588C32.5357 20.0895 32.584 20.3893 32.7912 20.5638L33.1605 20.8747L33.1341 20.9385H19.6406C18.736 20.9385 18 21.6745 18 22.5791V38.9853C18 39.89 18.736 40.6259 19.6406 40.6259H28.5327L27.7188 43.9072H27.0781C26.7761 43.9072 26.5312 44.152 26.5312 44.454C26.5312 44.7561 26.7761 45.0009 27.0781 45.0009H36.922C37.224 45.0009 37.4689 44.7561 37.4689 44.454C37.4689 44.152 37.224 43.9072 36.922 43.9072H36.2829L35.4676 40.6259H44.3594C45.2641 40.6259 46.0001 39.89 46.0001 38.9853V22.5791C46 21.6744 45.264 20.9385 44.3594 20.9385ZM34.826 19.0941L35.076 19.3911C35.2296 19.5734 35.4835 19.6353 35.7036 19.544L36.8217 19.0809C37.0418 18.9897 37.1776 18.7664 37.1572 18.5289L37.1241 18.1416C37.3472 18.1105 37.5723 18.0948 37.7969 18.0947C38.0216 18.0948 38.2467 18.1105 38.4698 18.1416L38.4366 18.5289C38.4162 18.7664 38.552 18.9897 38.7722 19.0809L39.8903 19.544C40.1105 19.6353 40.3643 19.5734 40.5178 19.3911L40.7679 19.0941C41.1269 19.3661 41.4483 19.6873 41.7199 20.0455L41.4226 20.2958C41.2402 20.4493 41.1783 20.7033 41.2696 20.9235L41.7325 22.0413C41.8237 22.2615 42.047 22.3972 42.2845 22.3769L42.6722 22.3437C42.7334 22.789 42.7331 23.2435 42.6715 23.6897L42.2847 23.6565C42.0474 23.6362 41.8239 23.7719 41.7327 23.992L41.2695 25.1101C41.1783 25.3303 41.2402 25.5842 41.4226 25.7378L41.7196 25.9878C41.4477 26.3469 41.1264 26.6684 40.7683 26.94L40.5177 26.6425C40.3641 26.4602 40.1103 26.3983 39.8901 26.4895L38.7723 26.9525C38.5521 27.0437 38.4163 27.267 38.4366 27.5045L38.4699 27.8921C38.2476 27.9229 38.0232 27.9384 37.7988 27.9384C37.7981 27.9384 37.7974 27.9384 37.7966 27.9384C37.7959 27.9384 37.7953 27.9384 37.7945 27.9384C37.5704 27.9384 37.3462 27.9229 37.124 27.8921L37.1572 27.5045C37.1776 27.267 37.0418 27.0437 36.8216 26.9525L35.7038 26.4895C35.4836 26.3983 35.2297 26.4602 35.0762 26.6425L34.8255 26.9401C34.4674 26.6685 34.1461 26.347 33.8742 25.9879L34.1712 25.7378C34.3536 25.5843 34.4155 25.3304 34.3243 25.1102L33.8611 23.9921C33.7698 23.7719 33.5464 23.6362 33.3091 23.6565L32.9223 23.6897C32.8606 23.2435 32.8604 22.789 32.9217 22.3438L33.3093 22.377C33.547 22.3971 33.7701 22.2615 33.8613 22.0413L34.3243 20.9235C34.4155 20.7033 34.3536 20.4494 34.1712 20.2959L33.8739 20.0455C34.1455 19.6873 34.4669 19.3661 34.826 19.0941ZM19.0937 38.9853V38.4383H19.0938H29.5389C29.8409 38.4383 30.0858 38.1935 30.0858 37.8915C30.0858 37.5894 29.8409 37.3446 29.5389 37.3446H19.0938H19.0937V22.579C19.0937 22.2775 19.3391 22.0322 19.6406 22.0322H31.8634C31.7336 22.8163 31.7602 23.6281 31.9445 24.4033C32.0072 24.6668 32.2533 24.8451 32.5234 24.8216L33.0039 24.7804L33.1606 25.1587L32.7917 25.4694C32.5844 25.6439 32.5362 25.9438 32.6782 26.1744C33.1678 26.9696 33.8458 27.6479 34.6387 28.136C34.8693 28.278 35.1691 28.2297 35.3436 28.0225L35.6549 27.653L36.0332 27.8097L35.992 28.2908C35.9688 28.5607 36.1467 28.8069 36.4103 28.8695C36.8636 28.9774 37.3292 29.0321 37.794 29.0321H37.7993C38.2645 29.0321 38.7302 28.9774 39.1835 28.8696C39.447 28.8069 39.6249 28.5608 39.6018 28.2908L39.5605 27.8098L39.9388 27.653L40.2501 28.0226C40.4245 28.2298 40.7244 28.278 40.955 28.1361C41.748 27.648 42.4259 26.9697 42.9155 26.1745C43.0576 25.9438 43.0094 25.6439 42.8021 25.4694L42.4332 25.1588L42.5899 24.7804L43.0704 24.8217C43.3409 24.8452 43.5865 24.6669 43.6492 24.4033C43.8336 23.6282 43.8602 22.8164 43.7304 22.0322H44.3594C44.6609 22.0322 44.9063 22.2775 44.9063 22.5791V37.3446H44.9062H34.4608C34.1588 37.3446 33.9139 37.5895 33.9139 37.8915C33.9139 38.1936 34.1588 38.4384 34.4608 38.4384H40.6567V39.5321H19.6406C19.3391 39.5321 19.0937 39.2868 19.0937 38.9853ZM35.1559 43.9071H28.8457L29.6596 40.6259H34.3405L35.1559 43.9071ZM44.3594 39.5321H41.7505V38.4384H44.9062H44.9063V38.9853C44.9063 39.2868 44.6609 39.5321 44.3594 39.5321Z" fill="white"/>
<path d="M37.7968 25.4766C39.1538 25.4766 40.2578 24.3726 40.2578 23.0156C40.2578 21.6587 39.1538 20.5547 37.7968 20.5547C36.4399 20.5547 35.3359 21.6587 35.3359 23.0156C35.3359 24.3726 36.4399 25.4766 37.7968 25.4766ZM37.7968 21.6484C38.5507 21.6484 39.164 22.2618 39.164 23.0156C39.164 23.7695 38.5507 24.3828 37.7968 24.3828C37.043 24.3828 36.4297 23.7695 36.4297 23.0156C36.4297 22.2618 37.043 21.6484 37.7968 21.6484Z" fill="white"/>
<path d="M23.1954 23.2617H20.7345C20.4325 23.2617 20.1876 23.5066 20.1876 23.8086V26.2695C20.1876 26.5716 20.4325 26.8164 20.7345 26.8164H23.1954C23.4975 26.8164 23.7423 26.5716 23.7423 26.2695V23.8086C23.7423 23.5066 23.4975 23.2617 23.1954 23.2617ZM22.6486 25.7227H21.2814V24.3555H22.6486V25.7227Z" fill="white"/>
<path d="M23.1954 27.9102H20.7345C20.4325 27.9102 20.1876 28.155 20.1876 28.457V30.918C20.1876 31.22 20.4325 31.4648 20.7345 31.4648H23.1954C23.4975 31.4648 23.7423 31.22 23.7423 30.918V28.457C23.7423 28.155 23.4975 27.9102 23.1954 27.9102ZM22.6486 30.3711H21.2814V29.0039H22.6486V30.3711Z" fill="white"/>
<path d="M27.8438 23.2617H25.3828C25.0808 23.2617 24.8359 23.5066 24.8359 23.8086V26.2695C24.8359 26.5716 25.0808 26.8164 25.3828 26.8164H27.8438C28.1458 26.8164 28.3906 26.5716 28.3906 26.2695V23.8086C28.3906 23.5066 28.1458 23.2617 27.8438 23.2617ZM27.2969 25.7227H25.9297V24.3555H27.2969V25.7227Z" fill="white"/>
<path d="M27.8438 27.9102H25.3828C25.0808 27.9102 24.8359 28.155 24.8359 28.457V30.918C24.8359 31.22 25.0808 31.4648 25.3828 31.4648H27.8438C28.1458 31.4648 28.3906 31.22 28.3906 30.918V28.457C28.3906 28.155 28.1458 27.9102 27.8438 27.9102ZM27.2969 30.3711H25.9297V29.0039H27.2969V30.3711Z" fill="white"/>
<path d="M43.2655 35.0195H38.9727C38.6707 35.0195 38.4258 35.2644 38.4258 35.5664C38.4258 35.8684 38.6707 36.1133 38.9727 36.1133H43.2655C43.5674 36.1133 43.8123 35.8684 43.8123 35.5664C43.8123 35.2644 43.5674 35.0195 43.2655 35.0195Z" fill="white"/>
<path d="M37.7969 33.6523H43.2656C43.5676 33.6523 43.8124 33.4075 43.8124 33.1055C43.8124 32.8034 43.5676 32.5586 43.2656 32.5586H37.7969C37.4949 32.5586 37.25 32.8034 37.25 33.1055C37.25 33.4075 37.4949 33.6523 37.7969 33.6523Z" fill="white"/>
<path d="M32.0002 37.3438H31.9998C31.6977 37.3438 31.4531 37.5886 31.4531 37.8906C31.4531 38.1927 31.6981 38.4375 32.0002 38.4375C32.3022 38.4375 32.547 38.1927 32.547 37.8906C32.547 37.5886 32.3022 37.3438 32.0002 37.3438Z" fill="white"/>
</g>
<defs>
<clipPath id="clip0_2416_14142">
<rect width="26" height="28" fill="white" transform="translate(19 17)"/>
</clipPath>
<clipPath id="clip1_2416_14142">
<rect width="28" height="28" fill="white" transform="translate(18 17)"/>
</clipPath>
</defs>
</svg>
