<svg width="61" height="61" viewBox="0 0 61 61" fill="none" xmlns="http://www.w3.org/2000/svg">
<circle cx="30.5" cy="30.5" r="30.5" fill="#74D414"/>
<path d="M41.3748 18.6086C42.3648 19.5971 42.3648 21.2006 41.3748 22.1891C40.3848 23.1776 38.7813 23.1776 37.7913 22.1891C36.8013 21.2006 36.8013 19.5971 37.7913 18.6086C38.7813 17.6201 40.3848 17.6201 41.3748 18.6086" stroke="white" stroke-width="1.5" stroke-linecap="round" stroke-linejoin="round"/>
<path d="M18.6488 41.3902C17.6587 40.4017 17.6587 38.7982 18.6488 37.8097C19.6388 36.8212 21.2423 36.8212 22.2323 37.8097C23.2223 38.7982 23.2223 40.4017 22.2323 41.3902C21.2423 42.3787 19.6372 42.3787 18.6488 41.3902" stroke="white" stroke-width="1.5" stroke-linecap="round" stroke-linejoin="round"/>
<path d="M22.4121 41.1712C27.6711 44.7442 34.8891 44.2072 39.5526 39.5482C42.1911 36.9112 43.5111 33.4552 43.5111 29.9992C43.5111 29.2012 43.4631 28.4047 43.3221 27.6172" stroke="white" stroke-width="1.5" stroke-linecap="round" stroke-linejoin="round"/>
<path d="M16.7007 32.3817C16.5597 31.5942 16.5117 30.7977 16.5117 29.9997C16.5117 26.5437 17.8317 23.0877 20.4702 20.4507C25.1322 15.7917 32.3517 15.2547 37.6107 18.8277" stroke="white" stroke-width="1.5" stroke-linecap="round" stroke-linejoin="round"/>
<path fill-rule="evenodd" clip-rule="evenodd" d="M30 35.6246C30 35.6246 34.5 33.4661 34.5 30.2291V26.5181L31.218 25.3376C30.429 25.0541 29.568 25.0541 28.779 25.3376L25.5 26.5181V30.2291C25.5 33.4661 30 35.6246 30 35.6246Z" stroke="white" stroke-width="1.5" stroke-linecap="round" stroke-linejoin="round"/>
</svg>
