<svg width="61" height="61" viewBox="0 0 61 61" fill="none" xmlns="http://www.w3.org/2000/svg">
<circle cx="30.5" cy="30.5" r="30.5" fill="#74D414"/>
<path fill-rule="evenodd" clip-rule="evenodd" d="M29.9231 42.8462C37.0603 42.8462 42.8462 37.0603 42.8462 29.9231C42.8462 22.7859 37.0603 17 29.9231 17C22.7859 17 17 22.7859 17 29.9231C17 37.0603 22.7859 42.8462 29.9231 42.8462Z" stroke="white" stroke-width="1.5" stroke-linecap="round" stroke-linejoin="round"/>
<path d="M28.316 32.812V34H23.792V32.812H25.436V26.74C25.372 26.836 25.264 26.944 25.112 27.064C24.968 27.176 24.804 27.288 24.62 27.4C24.436 27.504 24.244 27.592 24.044 27.664C23.852 27.736 23.676 27.772 23.516 27.772V26.548C23.732 26.548 23.948 26.492 24.164 26.38C24.388 26.268 24.596 26.14 24.788 25.996C24.98 25.844 25.132 25.708 25.244 25.588C25.364 25.468 25.428 25.404 25.436 25.396H26.792V32.812H28.316ZM28.9981 29.68C28.9981 29.16 29.0901 28.652 29.2741 28.156C29.4581 27.652 29.7261 27.196 30.0781 26.788C30.4381 26.372 30.8741 26.044 31.3861 25.804C31.8981 25.556 32.4781 25.432 33.1261 25.432C33.8941 25.432 34.5581 25.608 35.1181 25.96C35.6781 26.304 36.0941 26.748 36.3661 27.292L35.3101 28C35.1501 27.656 34.9461 27.384 34.6981 27.184C34.4581 26.984 34.1941 26.844 33.9061 26.764C33.6261 26.684 33.3501 26.644 33.0781 26.644C32.6301 26.644 32.2381 26.736 31.9021 26.92C31.5661 27.096 31.2821 27.332 31.0501 27.628C30.8261 27.924 30.6541 28.256 30.5341 28.624C30.4221 28.992 30.3661 29.36 30.3661 29.728C30.3661 30.136 30.4341 30.532 30.5701 30.916C30.7061 31.292 30.8941 31.628 31.1341 31.924C31.3821 32.212 31.6741 32.44 32.0101 32.608C32.3461 32.776 32.7141 32.86 33.1141 32.86C33.3861 32.86 33.6701 32.812 33.9661 32.716C34.2621 32.62 34.5341 32.472 34.7821 32.272C35.0381 32.064 35.2381 31.792 35.3821 31.456L36.4981 32.092C36.3221 32.516 36.0461 32.876 35.6701 33.172C35.3021 33.468 34.8861 33.692 34.4221 33.844C33.9661 33.996 33.5141 34.072 33.0661 34.072C32.4661 34.072 31.9181 33.948 31.4221 33.7C30.9261 33.444 30.4981 33.108 30.1381 32.692C29.7781 32.268 29.4981 31.796 29.2981 31.276C29.0981 30.748 28.9981 30.216 28.9981 29.68Z" fill="white"/>
</svg>
