<svg width="61" height="61" viewBox="0 0 61 61" fill="none" xmlns="http://www.w3.org/2000/svg">
<circle cx="30.5" cy="30.5" r="30.5" fill="#74D414"/>
<path d="M33.543 17.9307C36.174 18.1437 38.745 19.2327 40.7595 21.2472C42.7725 23.2602 43.86 25.8297 44.0715 28.4592" stroke="white" stroke-width="1.5" stroke-linecap="round" stroke-linejoin="round"/>
<path d="M28.4862 44.0697C25.8462 43.8612 23.2632 42.7707 21.2427 40.7502C19.2222 38.7297 18.1347 36.1497 17.9277 33.5112" stroke="white" stroke-width="1.5" stroke-linecap="round" stroke-linejoin="round"/>
<path d="M34.9453 37.1948L37.1953 34.9448" stroke="white" stroke-width="1.5" stroke-linecap="round" stroke-linejoin="round"/>
<path fill-rule="evenodd" clip-rule="evenodd" d="M20.9333 26.0668L26.0663 20.9338C27.2378 19.7623 29.1368 19.7623 30.3083 20.9338L41.0663 31.6918C42.2378 32.8633 42.2378 34.7623 41.0663 35.9338L35.9333 41.0668C34.7618 42.2383 32.8628 42.2383 31.6913 41.0668L20.9333 30.3088C19.7618 29.1373 19.7618 27.2383 20.9333 26.0668Z" stroke="white" stroke-width="1.5" stroke-linecap="round" stroke-linejoin="round"/>
</svg>
