<svg width="64" height="64" viewBox="0 0 64 64" fill="none" xmlns="http://www.w3.org/2000/svg">
<circle cx="32" cy="32" r="32" fill="#74D414"/>
<path d="M32.1174 33.9509V32.0001C33.5824 32.0001 34.77 30.8355 34.77 29.399C34.77 27.9624 33.5824 26.7979 32.1174 26.7979C30.6524 26.7979 29.4648 27.9624 29.4648 29.399" stroke="white" stroke-width="1.5" stroke-linecap="round" stroke-linejoin="round"/>
<path d="M33.4425 43.6244C33.0025 43.6777 32.5596 43.7046 32.1162 43.7051C25.5239 43.7051 20.1797 38.4646 20.1797 32.0002C20.1797 25.5358 25.5239 20.2954 32.1162 20.2954C38.7086 20.2954 44.0527 25.5358 44.0527 32.0002C44.0522 32.435 44.0248 32.8693 43.9705 33.3008" stroke="white" stroke-width="1.5" stroke-linecap="round" stroke-linejoin="round"/>
<path d="M42.7271 38.5029L39.4113 41.7544L37.4219 39.8035" stroke="white" stroke-width="1.5" stroke-linecap="round" stroke-linejoin="round"/>
<path d="M32.1162 37.137C32.0796 37.137 32.0499 37.1661 32.0499 37.202C32.0499 37.2379 32.0796 37.2671 32.1162 37.2671C32.1528 37.2671 32.1825 37.2379 32.1825 37.202C32.1825 37.1661 32.1528 37.137 32.1162 37.137" stroke="white" stroke-width="1.5" stroke-linecap="round" stroke-linejoin="round"/>
</svg>
