<svg width="64" height="64" viewBox="0 0 64 64" fill="none" xmlns="http://www.w3.org/2000/svg">
<circle cx="32" cy="32" r="32" fill="#74D414"/>
<path d="M34.543 18.9307C37.174 19.1437 39.745 20.2327 41.7595 22.2472C43.7725 24.2602 44.86 26.8297 45.0715 29.4592" stroke="white" stroke-width="1.5" stroke-linecap="round" stroke-linejoin="round"/>
<path d="M29.4882 45.0697C26.8482 44.8612 24.2652 43.7707 22.2447 41.7502C20.2242 39.7297 19.1367 37.1497 18.9297 34.5112" stroke="white" stroke-width="1.5" stroke-linecap="round" stroke-linejoin="round"/>
<path d="M35.9453 38.1948L38.1953 35.9448" stroke="white" stroke-width="1.5" stroke-linecap="round" stroke-linejoin="round"/>
<path fill-rule="evenodd" clip-rule="evenodd" d="M21.9333 27.0668L27.0663 21.9338C28.2378 20.7623 30.1368 20.7623 31.3083 21.9338L42.0663 32.6918C43.2378 33.8633 43.2378 35.7623 42.0663 36.9338L36.9333 42.0668C35.7618 43.2383 33.8628 43.2383 32.6913 42.0668L21.9333 31.3088C20.7618 30.1373 20.7618 28.2383 21.9333 27.0668Z" stroke="white" stroke-width="1.5" stroke-linecap="round" stroke-linejoin="round"/>
</svg>
