<svg width="64" height="64" viewBox="0 0 64 64" fill="none" xmlns="http://www.w3.org/2000/svg">
<circle cx="32" cy="32" r="32" fill="#74D414"/>
<path fill-rule="evenodd" clip-rule="evenodd" d="M31.9231 44.8462C39.0603 44.8462 44.8462 39.0603 44.8462 31.9231C44.8462 24.7859 39.0603 19 31.9231 19C24.7859 19 19 24.7859 19 31.9231C19 39.0603 24.7859 44.8462 31.9231 44.8462Z" stroke="white" stroke-width="1.5" stroke-linecap="round" stroke-linejoin="round"/>
<path d="M30.316 34.812V36H25.792V34.812H27.436V28.74C27.372 28.836 27.264 28.944 27.112 29.064C26.968 29.176 26.804 29.288 26.62 29.4C26.436 29.504 26.244 29.592 26.044 29.664C25.852 29.736 25.676 29.772 25.516 29.772V28.548C25.732 28.548 25.948 28.492 26.164 28.38C26.388 28.268 26.596 28.14 26.788 27.996C26.98 27.844 27.132 27.708 27.244 27.588C27.364 27.468 27.428 27.404 27.436 27.396H28.792V34.812H30.316ZM30.9981 31.68C30.9981 31.16 31.0901 30.652 31.2741 30.156C31.4581 29.652 31.7261 29.196 32.0781 28.788C32.4381 28.372 32.8741 28.044 33.3861 27.804C33.8981 27.556 34.4781 27.432 35.1261 27.432C35.8941 27.432 36.5581 27.608 37.1181 27.96C37.6781 28.304 38.0941 28.748 38.3661 29.292L37.3101 30C37.1501 29.656 36.9461 29.384 36.6981 29.184C36.4581 28.984 36.1941 28.844 35.9061 28.764C35.6261 28.684 35.3501 28.644 35.0781 28.644C34.6301 28.644 34.2381 28.736 33.9021 28.92C33.5661 29.096 33.2821 29.332 33.0501 29.628C32.8261 29.924 32.6541 30.256 32.5341 30.624C32.4221 30.992 32.3661 31.36 32.3661 31.728C32.3661 32.136 32.4341 32.532 32.5701 32.916C32.7061 33.292 32.8941 33.628 33.1341 33.924C33.3821 34.212 33.6741 34.44 34.0101 34.608C34.3461 34.776 34.7141 34.86 35.1141 34.86C35.3861 34.86 35.6701 34.812 35.9661 34.716C36.2621 34.62 36.5341 34.472 36.7821 34.272C37.0381 34.064 37.2381 33.792 37.3821 33.456L38.4981 34.092C38.3221 34.516 38.0461 34.876 37.6701 35.172C37.3021 35.468 36.8861 35.692 36.4221 35.844C35.9661 35.996 35.5141 36.072 35.0661 36.072C34.4661 36.072 33.9181 35.948 33.4221 35.7C32.9261 35.444 32.4981 35.108 32.1381 34.692C31.7781 34.268 31.4981 33.796 31.2981 33.276C31.0981 32.748 30.9981 32.216 30.9981 31.68Z" fill="white"/>
</svg>
