<svg width="64" height="64" viewBox="0 0 64 64" fill="none" xmlns="http://www.w3.org/2000/svg">
<circle cx="32" cy="32" r="32" fill="#74D414"/>
<g clip-path="url(#clip0_2416_13339)">
<path d="M26.7204 27.2661L22.2236 31.6756C21.9203 31.9731 21.9203 32.4554 22.2236 32.7528L26.2837 36.7341C26.587 37.0316 27.0789 37.0316 27.3822 36.7341C27.6856 36.4366 27.6856 35.9543 27.3822 35.6569L23.8715 32.2142L27.8189 28.3433C28.1223 28.0458 28.1223 27.5635 27.8189 27.2661C27.5156 26.9686 27.0237 26.9686 26.7204 27.2661Z" fill="white"/>
<path d="M36.6222 27.2661C36.3188 26.9686 35.827 26.9686 35.5236 27.2661C35.2202 27.5636 35.2202 28.0458 35.5236 28.3433L39.0344 31.786L35.0869 35.6569C34.7835 35.9543 34.7835 36.4366 35.0869 36.7341C35.3902 37.0316 35.8821 37.0316 36.1854 36.7341L40.6822 32.3246C40.9856 32.0271 40.9856 31.5449 40.6822 31.2474L36.6222 27.2661Z" fill="white"/>
<path d="M32.0006 29.5281C31.596 29.3879 31.1524 29.596 31.0095 29.9927L28.6539 37.4491C28.5111 37.8458 28.7231 38.2809 29.1277 38.421C29.5321 38.561 29.976 38.3531 30.1188 37.9564L32.4744 30.5C32.6173 30.1033 32.4051 29.6682 32.0006 29.5281Z" fill="white"/>
<path d="M40.9573 22.4888H21.948C19.8787 22.4888 18.1953 24.1395 18.1953 26.1686V37.8315C18.1953 39.8606 19.8787 41.5113 21.948 41.5113H40.9573C43.0265 41.5113 44.71 39.8606 44.71 37.8315V26.1686C44.71 24.1395 43.0265 22.4888 40.9573 22.4888ZM43.1564 37.8315C43.1564 39.0206 42.1699 39.9879 40.9573 39.9879H21.948C20.7354 39.9879 19.7489 39.0206 19.7489 37.8315V26.1686C19.7489 24.9795 20.7354 24.0122 21.948 24.0122H40.9573C42.1699 24.0122 43.1564 24.9795 43.1564 26.1686V37.8315Z" fill="white"/>
<ellipse cx="32.4374" cy="27.8396" rx="0.812424" ry="0.796655" fill="white"/>
</g>
<defs>
<clipPath id="clip0_2416_13339">
<rect width="26.5146" height="26" fill="white" transform="translate(18.1953 19)"/>
</clipPath>
</defs>
</svg>
