<svg width="64" height="64" viewBox="0 0 64 64" fill="none" xmlns="http://www.w3.org/2000/svg">
<circle cx="32" cy="32" r="32" fill="#74D414"/>
<g clip-path="url(#clip0_2416_13364)">
<path d="M44.8811 21.9385H42.9437L42.9167 21.8747L43.2933 21.5637C43.5047 21.3893 43.5539 21.0894 43.4091 20.8588C42.9113 20.0658 42.2197 19.3878 41.4091 18.8981C41.1738 18.756 40.868 18.8043 40.69 19.0115L40.3731 19.3805L39.9872 19.2237L40.0291 18.7429C40.0528 18.473 39.8713 18.2268 39.6026 18.1642C39.1391 18.0561 38.6635 18.0012 38.1889 18.001C38.1887 18.001 38.1886 18.001 38.1884 18.001C37.7138 18.0012 37.2383 18.0561 36.7748 18.1642C36.506 18.2268 36.3245 18.473 36.3482 18.7429L36.3902 19.2237L36.0042 19.3805L35.6873 19.0115C35.5094 18.8043 35.2034 18.7561 34.9682 18.8982C34.1576 19.3878 33.4659 20.0658 32.9683 20.8588C32.8234 21.0895 32.8727 21.3893 33.084 21.5638L33.4606 21.8747L33.4337 21.9385H19.6731C18.7505 21.9385 18 22.6745 18 23.5791V39.9853C18 40.89 18.7505 41.6259 19.6731 41.6259H28.7412L27.9112 44.9072H27.2578C26.9498 44.9072 26.7001 45.152 26.7001 45.454C26.7001 45.7561 26.9498 46.0009 27.2578 46.0009H37.2965C37.6045 46.0009 37.8542 45.7561 37.8542 45.454C37.8542 45.152 37.6045 44.9072 37.2965 44.9072H36.6448L35.8133 41.6259H44.8812C45.8037 41.6259 46.5543 40.89 46.5543 39.9853V23.5791C46.5542 22.6744 45.8037 21.9385 44.8811 21.9385ZM35.159 20.0941L35.414 20.3911C35.5706 20.5734 35.8295 20.6353 36.054 20.544L37.1942 20.0809C37.4187 19.9897 37.5572 19.7664 37.5364 19.5289L37.5026 19.1416C37.7302 19.1105 37.9596 19.0948 38.1887 19.0947C38.4178 19.0948 38.6474 19.1105 38.8749 19.1416L38.8411 19.5289C38.8203 19.7664 38.9588 19.9897 39.1833 20.0809L40.3236 20.544C40.5481 20.6353 40.807 20.5734 40.9635 20.3911L41.2185 20.0941C41.5847 20.3661 41.9124 20.6873 42.1894 21.0455L41.8862 21.2958C41.7002 21.4493 41.6371 21.7033 41.7301 21.9235L42.2023 23.0413C42.2953 23.2615 42.5229 23.3972 42.7652 23.3769L43.1605 23.3437C43.2229 23.789 43.2227 24.2435 43.1598 24.6897L42.7654 24.6565C42.5233 24.6362 42.2955 24.7719 42.2024 24.992L41.7301 26.1101C41.6371 26.3303 41.7002 26.5842 41.8862 26.7378L42.1891 26.9878C41.9118 27.3469 41.5842 27.6684 41.2189 27.94L40.9634 27.6425C40.8067 27.4602 40.5479 27.3983 40.3233 27.4895L39.1834 27.9525C38.9589 28.0437 38.8204 28.267 38.8411 28.5045L38.875 28.8921C38.6483 28.9229 38.4195 28.9384 38.1907 28.9384C38.19 28.9384 38.1892 28.9384 38.1885 28.9384C38.1877 28.9384 38.1871 28.9384 38.1863 28.9384C37.9577 28.9384 37.7291 28.9229 37.5025 28.8921L37.5364 28.5045C37.5572 28.267 37.4187 28.0437 37.1941 27.9525L36.0542 27.4895C35.8296 27.3983 35.5707 27.4602 35.4141 27.6425L35.1586 27.9401C34.7933 27.6685 34.4657 27.347 34.1884 26.9879L34.4913 26.7378C34.6773 26.5843 34.7404 26.3304 34.6474 26.1102L34.1751 24.9921C34.082 24.7719 33.8542 24.6362 33.6121 24.6565L33.2177 24.6897C33.1547 24.2435 33.1546 23.789 33.217 23.3438L33.6123 23.377C33.8547 23.3971 34.0822 23.2615 34.1752 23.0413L34.6474 21.9235C34.7404 21.7033 34.6773 21.4494 34.4913 21.2959L34.1881 21.0455C34.4651 20.6873 34.7928 20.3661 35.159 20.0941ZM19.1154 39.9853V39.4383H19.1154H29.7673C30.0753 39.4383 30.325 39.1935 30.325 38.8915C30.325 38.5894 30.0753 38.3446 29.7673 38.3446H19.1154H19.1154V23.579C19.1154 23.2775 19.3656 23.0322 19.6731 23.0322H32.1378C32.0054 23.8163 32.0325 24.6281 32.2205 25.4033C32.2845 25.6668 32.5354 25.8451 32.8108 25.8216L33.3009 25.7804L33.4606 26.1587L33.0844 26.4694C32.8731 26.6439 32.8239 26.9438 32.9688 27.1744C33.4681 27.9696 34.1594 28.6479 34.968 29.136C35.2032 29.278 35.5089 29.2297 35.6869 29.0225L36.0044 28.653L36.3902 28.8097L36.3481 29.2908C36.3245 29.5607 36.5059 29.8069 36.7746 29.8695C37.2369 29.9774 37.7117 30.0321 38.1857 30.0321H38.1911C38.6656 30.0321 39.1405 29.9774 39.6028 29.8696C39.8715 29.8069 40.053 29.5608 40.0293 29.2908L39.9873 28.8098L40.3731 28.653L40.6905 29.0226C40.8683 29.2298 41.1742 29.278 41.4094 29.1361C42.218 28.648 42.9094 27.9697 43.4087 27.1745C43.5536 26.9438 43.5044 26.6439 43.293 26.4694L42.9168 26.1588L43.0766 25.7804L43.5666 25.8217C43.8425 25.8452 44.093 25.6669 44.1569 25.4033C44.3449 24.6282 44.372 23.8164 44.2396 23.0322H44.8811C45.1886 23.0322 45.4388 23.2775 45.4388 23.5791V38.3446H45.4388H34.7866C34.4786 38.3446 34.2289 38.5895 34.2289 38.8915C34.2289 39.1936 34.4786 39.4384 34.7866 39.4384H41.1052V40.5321H19.6731C19.3656 40.5321 19.1154 40.2868 19.1154 39.9853ZM35.4955 44.9071H29.0604L29.8904 41.6259H34.6639L35.4955 44.9071ZM44.8811 40.5321H42.2206V39.4384H45.4388H45.4388V39.9853C45.4388 40.2868 45.1886 40.5321 44.8811 40.5321Z" fill="white"/>
<path d="M38.1893 26.4766C39.5731 26.4766 40.6989 25.3726 40.6989 24.0156C40.6989 22.6587 39.5731 21.5547 38.1893 21.5547C36.8055 21.5547 35.6797 22.6587 35.6797 24.0156C35.6797 25.3726 36.8055 26.4766 38.1893 26.4766ZM38.1893 22.6484C38.9581 22.6484 39.5835 23.2618 39.5835 24.0156C39.5835 24.7695 38.9581 25.3828 38.1893 25.3828C37.4205 25.3828 36.7951 24.7695 36.7951 24.0156C36.7951 23.2618 37.4205 22.6484 38.1893 22.6484Z" fill="white"/>
<path d="M23.2978 24.2617H20.7882C20.4802 24.2617 20.2305 24.5066 20.2305 24.8086V27.2695C20.2305 27.5716 20.4802 27.8164 20.7882 27.8164H23.2978C23.6058 27.8164 23.8555 27.5716 23.8555 27.2695V24.8086C23.8555 24.5066 23.6058 24.2617 23.2978 24.2617ZM22.7401 26.7227H21.3459V25.3555H22.7401V26.7227Z" fill="white"/>
<path d="M23.2978 28.9102H20.7882C20.4802 28.9102 20.2305 29.155 20.2305 29.457V31.918C20.2305 32.22 20.4802 32.4648 20.7882 32.4648H23.2978C23.6058 32.4648 23.8555 32.22 23.8555 31.918V29.457C23.8555 29.155 23.6058 28.9102 23.2978 28.9102ZM22.7401 31.3711H21.3459V30.0039H22.7401V31.3711Z" fill="white"/>
<path d="M28.04 24.2617H25.5304C25.2223 24.2617 24.9727 24.5066 24.9727 24.8086V27.2695C24.9727 27.5716 25.2223 27.8164 25.5304 27.8164H28.04C28.348 27.8164 28.5977 27.5716 28.5977 27.2695V24.8086C28.5977 24.5066 28.348 24.2617 28.04 24.2617ZM27.4823 26.7227H26.0881V25.3555H27.4823V26.7227Z" fill="white"/>
<path d="M28.04 28.9102H25.5304C25.2223 28.9102 24.9727 29.155 24.9727 29.457V31.918C24.9727 32.22 25.2223 32.4648 25.5304 32.4648H28.04C28.348 32.4648 28.5977 32.22 28.5977 31.918V29.457C28.5977 29.155 28.348 28.9102 28.04 28.9102ZM27.4823 31.3711H26.0881V30.0039H27.4823V31.3711Z" fill="white"/>
<path d="M43.7636 36.0195H39.3858C39.0779 36.0195 38.8281 36.2644 38.8281 36.5664C38.8281 36.8684 39.0779 37.1133 39.3858 37.1133H43.7636C44.0716 37.1133 44.3213 36.8684 44.3213 36.5664C44.3213 36.2644 44.0716 36.0195 43.7636 36.0195Z" fill="white"/>
<path d="M38.1905 34.6523H43.7674C44.0754 34.6523 44.3251 34.4075 44.3251 34.1055C44.3251 33.8034 44.0754 33.5586 43.7674 33.5586H38.1905C37.8826 33.5586 37.6328 33.8034 37.6328 34.1055C37.6328 34.4075 37.8826 34.6523 38.1905 34.6523Z" fill="white"/>
<path d="M32.2766 38.3438H32.2762C31.9682 38.3438 31.7188 38.5886 31.7188 38.8906C31.7188 39.1927 31.9686 39.4375 32.2766 39.4375C32.5846 39.4375 32.8343 39.1927 32.8343 38.8906C32.8343 38.5886 32.5846 38.3438 32.2766 38.3438Z" fill="white"/>
</g>
<defs>
<clipPath id="clip0_2416_13364">
<rect width="28.5542" height="28" fill="white" transform="translate(18 18)"/>
</clipPath>
</defs>
</svg>
