<svg width="64" height="64" viewBox="0 0 64 64" fill="none" xmlns="http://www.w3.org/2000/svg">
<circle cx="32" cy="32" r="32" fill="#74D414"/>
<g clip-path="url(#clip0_2416_13394)">
<path d="M31.9983 22.0496C31.6857 22.0496 31.4305 22.2986 31.4305 22.6074C31.4305 22.9162 31.6858 23.1651 31.9983 23.1651C32.3108 23.1651 32.5661 22.9162 32.5661 22.6074C32.5661 22.2986 32.3108 22.0496 31.9983 22.0496Z" fill="white" stroke="white" stroke-width="0.1"/>
<path d="M30.9626 28.1429H33.0339C33.3464 28.1429 33.6017 28.3918 33.6015 28.7008L30.9626 28.1429ZM30.9626 28.1429C30.7188 28.1429 30.5016 28.2959 30.424 28.524M30.9626 28.1429L30.424 28.524M30.424 28.524L29.9269 29.9863M30.424 28.524L29.9269 29.9863M29.9269 29.9863L29.4299 28.5241L29.4299 28.5241L29.3826 28.5402C29.3121 28.3328 29.1142 28.193 28.8913 28.193H28.26M29.9269 29.9863L27.3709 24.5031M28.26 28.193L28.3084 28.1806L28.2989 28.143H28.26V28.193ZM28.26 28.193L27.3225 24.5154M27.3225 24.5154L27.3709 24.5031M27.3225 24.5154C27.2649 24.2894 27.0577 24.1309 26.8201 24.1309C26.5825 24.1309 26.3754 24.2894 26.3178 24.5154M27.3225 24.5154L27.3709 24.5031L27.3709 24.5031M27.3709 24.5031L26.3178 24.5154M28.518 29.2085H27.8556C27.618 29.2085 27.4109 29.05 27.3533 28.824L27.3048 28.8363L27.3048 28.8363L26.82 26.9347L26.3351 28.8363C26.3351 28.8363 26.3351 28.8363 26.3351 28.8363C26.2718 29.085 26.0443 29.2585 25.7844 29.2585H23.7131C23.4005 29.2585 23.1453 29.0097 23.1453 28.7008C23.1453 28.3919 23.4005 28.143 23.7131 28.143H25.3414L28.518 29.2085ZM28.518 29.2085L28.4707 29.2246L28.4822 29.2585M28.518 29.2085V29.2585H28.4822M28.4822 29.2585L29.3883 31.924L28.4822 29.2585ZM26.3178 24.5154L25.3803 28.193L26.3178 24.5154Z" fill="white" stroke="white" stroke-width="0.1"/>
<path d="M21.7321 34.6049L21.697 34.6406C18.0341 31.0486 18.0345 25.2349 21.6971 21.6433C25.3595 18.052 31.2866 18.0524 34.9487 21.6433C38.0615 24.6958 38.5711 29.4316 36.2868 33.0237C36.4313 33.1528 36.6779 33.3733 36.998 33.6594C39.0486 35.4924 44.117 40.0229 44.6917 40.5377C45.786 41.4904 45.8867 43.217 44.7901 44.2914C43.7595 45.3029 42.092 45.3023 41.0613 44.2933M21.7321 34.6049L41.0963 44.2576M21.7321 34.6049L21.6971 34.6406C24.8085 37.6916 29.6316 38.1897 33.2908 35.9581M21.7321 34.6049L33.2995 35.8941M41.0613 44.2933L41.0963 44.2576M41.0613 44.2933C41.0614 44.2935 41.0615 44.2935 41.0616 44.2936L41.0963 44.2576M41.0613 44.2933C41.0116 44.2408 34.0825 36.8075 33.3291 35.9992L33.2908 35.9581M41.0963 44.2576C41.0903 44.2519 34.0241 36.6715 33.3508 35.9492L33.2995 35.8941M33.2908 35.9581C33.3024 35.951 33.3141 35.9438 33.3257 35.9367L33.2995 35.8941M33.2908 35.9581L33.2629 35.9282L33.2995 35.8941M34.2498 35.3204L34.2498 35.3203C34.2437 35.3138 34.2376 35.3077 34.232 35.3021L34.2317 35.3018C34.486 35.0999 34.7308 34.8837 34.9638 34.6553C35.1963 34.4274 35.4164 34.1873 35.6225 33.9379L36.735 34.9326L35.2465 36.3922L34.2498 35.3204ZM34.1464 22.4328L34.1814 22.3971L34.1464 22.4328C37.3843 25.6079 37.3782 30.7114 34.1614 33.8658L34.1964 33.9015L34.1614 33.8658C30.9418 37.0234 25.7308 37.0197 22.4994 33.851C19.2817 30.6958 19.2811 25.5885 22.4994 22.4328C25.7177 19.277 30.9277 19.2764 34.1464 22.4328ZM43.9879 43.5018L43.9878 43.5018C43.3677 44.1103 42.359 44.062 41.8072 43.4458L41.8066 43.4451L36.0132 37.2167L37.5759 35.6844L43.9302 41.3651C43.9302 41.3652 43.9303 41.3652 43.9303 41.3653C44.604 41.9765 44.5674 42.934 43.9879 43.5018Z" fill="white" stroke="white" stroke-width="0.1"/>
<path d="M32.6963 32.4295L32.6963 32.4295C30.2919 34.7878 26.3839 34.7881 23.9791 32.4294L23.9791 32.4294C21.5747 30.0721 21.5745 26.2417 23.9792 23.8842L23.9792 23.8842C25.5342 22.3594 27.8245 21.7623 29.9563 22.327L29.9563 22.327C30.258 22.4068 30.5702 22.2321 30.6522 21.9341L30.6522 21.9341C30.7343 21.6358 30.5541 21.33 30.2519 21.2499L30.2391 21.2982L30.2519 21.2499C27.7298 20.5817 25.0188 21.2884 23.1769 23.0946C20.3277 25.888 20.3274 30.4253 23.1767 33.2189C26.0249 36.0123 30.6503 36.0125 33.4986 33.219C36.1718 30.5981 36.3398 26.4257 33.9768 23.6104L33.9385 23.6425L33.9768 23.6104C33.7775 23.3729 33.4202 23.339 33.1782 23.5342C32.9357 23.7299 32.9007 24.0819 33.1006 24.32C35.1253 26.7324 34.9517 30.2184 32.6963 32.4295Z" fill="white" stroke="white" stroke-width="0.1"/>
</g>
<defs>
<clipPath id="clip0_2416_13394">
<rect width="26.5146" height="28" fill="white" transform="translate(19 18)"/>
</clipPath>
</defs>
</svg>
