<svg width="64" height="64" viewBox="0 0 64 64" fill="none" xmlns="http://www.w3.org/2000/svg">
<circle cx="32" cy="32" r="32" fill="#74D414"/>
<g clip-path="url(#clip0_2416_13382)">
<path d="M31.3141 28.4098V23.5533C32.4728 23.2614 33.3317 22.2283 33.3317 21.0022C33.3317 19.55 32.1269 18.3687 30.646 18.3687C29.1651 18.3687 27.9604 19.55 27.9604 21.0022C27.9604 22.2283 28.8192 23.2613 29.9778 23.5533V28.4097C28.5725 28.6171 27.3794 29.468 26.7213 30.6457L23.7824 28.4054C23.8543 28.207 23.8938 27.9936 23.8938 27.7714C23.8938 26.724 23.0248 25.8718 21.9567 25.8718C20.8885 25.8718 20.0195 26.724 20.0195 27.7714C20.0195 28.8188 20.8885 29.6709 21.9567 29.6709C22.3105 29.6709 22.6422 29.5769 22.9279 29.4138L26.2499 31.9462C26.2009 32.2057 26.174 32.4726 26.174 32.7459C26.174 33.719 26.4993 34.6188 27.0483 35.3471L23.2923 39.0302C23.0314 39.2861 23.0314 39.7009 23.2923 39.9567C23.4228 40.0846 23.5938 40.1486 23.7648 40.1486C23.9357 40.1486 24.1068 40.0847 24.2373 39.9567L27.9933 36.2736C28.566 36.6888 29.2428 36.9734 29.9778 37.0819V41.9492C29.2379 42.2167 28.7088 42.915 28.7088 43.7322C28.7088 44.7796 29.5779 45.6317 30.646 45.6317C31.7141 45.6317 32.5831 44.7796 32.5831 43.7322C32.5831 42.9149 32.054 42.2166 31.3141 41.9492V37.082C33.4642 36.7648 35.118 34.9413 35.118 32.746C35.118 30.5505 33.4641 28.727 31.3141 28.4098ZM21.9567 28.3607C21.6253 28.3607 21.3558 28.0963 21.3558 27.7715C21.3558 27.4466 21.6253 27.1823 21.9567 27.1823C22.288 27.1823 22.5575 27.4466 22.5575 27.7715C22.5575 28.0963 22.288 28.3607 21.9567 28.3607ZM29.2965 21.0022C29.2965 20.2726 29.9018 19.679 30.6459 19.679C31.3899 19.679 31.9953 20.2726 31.9953 21.0022C31.9953 21.7319 31.3899 22.3255 30.6459 22.3255C29.9018 22.3255 29.2965 21.7319 29.2965 21.0022ZM30.646 44.3214C30.3146 44.3214 30.0451 44.0571 30.0451 43.7322C30.0451 43.4478 30.2515 43.2099 30.5252 43.1549C30.5644 43.162 30.6046 43.1662 30.646 43.1662C30.6873 43.1662 30.7276 43.162 30.7668 43.1549C31.0404 43.2099 31.2468 43.4478 31.2468 43.7322C31.2468 44.0571 30.9773 44.3214 30.646 44.3214ZM30.646 35.8207C28.9169 35.8207 27.5103 34.4413 27.5103 32.7458C27.5103 32.4466 27.5549 32.1576 27.6365 31.8839C27.6409 31.8703 27.645 31.8569 27.6484 31.8432C28.0426 30.5868 29.2371 29.6709 30.646 29.6709C32.375 29.6709 33.7817 31.0503 33.7817 32.7458C33.7817 34.4414 32.375 35.8207 30.646 35.8207Z" fill="white"/>
<path d="M43.8696 26.3818C42.3887 26.3818 41.1839 27.5632 41.1839 29.0154C41.1839 29.0831 41.1874 29.1499 41.1926 29.2163L38.4645 30.0434C38.1152 30.1601 37.9286 30.5325 38.0477 30.8749C38.1424 31.1474 38.4019 31.3189 38.68 31.3189C38.7515 31.3189 38.8242 31.3075 38.8956 31.2837L41.6236 30.4567C42.1039 31.174 42.9311 31.6491 43.8697 31.6491C45.3506 31.6491 46.5553 30.4677 46.5553 29.0155C46.5552 27.5633 45.3505 26.3818 43.8696 26.3818ZM43.8696 30.3388C43.1255 30.3388 42.5202 29.7452 42.5202 29.0155C42.5202 28.2858 43.1256 27.6922 43.8696 27.6922C44.6137 27.6922 45.219 28.2858 45.219 29.0155C45.219 29.7451 44.6137 30.3388 43.8696 30.3388Z" fill="white"/>
<path d="M20.6857 39.8774C19.2048 39.8774 18 41.0589 18 42.511C18 43.9632 19.2048 45.1446 20.6857 45.1446C22.1665 45.1446 23.3713 43.9632 23.3713 42.511C23.3714 41.0589 22.1665 39.8774 20.6857 39.8774ZM20.6857 43.8344C19.9416 43.8344 19.3363 43.2408 19.3363 42.5111C19.3363 41.7814 19.9417 41.1879 20.6857 41.1879C21.4297 41.1879 22.035 41.7814 22.035 42.5111C22.0351 43.2407 21.4298 43.8344 20.6857 43.8344Z" fill="white"/>
<ellipse cx="36.5824" cy="31.2601" rx="0.754257" ry="0.739622" fill="white"/>
</g>
<defs>
<clipPath id="clip0_2416_13382">
<rect width="28.5541" height="28" fill="white" transform="translate(18 18)"/>
</clipPath>
</defs>
</svg>
