<svg width="124" height="47" viewBox="0 0 124 47" fill="none" xmlns="http://www.w3.org/2000/svg">
<g clip-path="url(#clip0_2416_13550)">
<path fill-rule="evenodd" clip-rule="evenodd" d="M7.97014 23.6824C7.97014 32.9229 14.6855 39.0831 23.1917 39.0831C27.2209 39.0831 31.2502 37.3231 33.9363 34.6829L39.3086 39.9632C35.2794 43.9234 29.4594 46.5635 23.1917 46.5635C10.6563 46.5635 0.359375 37.7631 0.359375 23.6824C0.359375 10.4818 9.76092 0.801342 23.1917 0.801342C29.4594 0.801342 35.2794 3.44147 39.3086 7.40165L33.9363 12.6819C31.2502 10.0418 27.2209 8.2817 23.1917 8.2817C13.7902 8.2817 7.97014 14.882 7.97014 23.6824ZM54.5302 46.1235H46.9194V1.24137H54.5302C65.2748 1.24137 80.9441 3.88149 80.9441 23.6824C80.9441 43.0433 65.7225 46.1235 54.5302 46.1235ZM54.5302 8.2817V38.6431C54.5302 38.6431 73.781 41.2832 73.3333 23.2424C73.3333 5.64158 54.5302 8.2817 54.5302 8.2817ZM90.3456 38.6431H120.341V46.1235H90.3456V38.6431Z" fill="#74D414"/>
<circle cx="104.5" cy="16.5" r="16.5" fill="#FF2953"/>
<path d="M112.717 14.868C112.717 15.4818 112.265 15.9937 111.669 16.0988H98.4299C97.7311 16.0988 97.1641 15.5428 97.1641 14.8575C97.1641 14.4949 97.3227 14.1701 97.5746 13.9431L97.7793 13.7928L104.009 9.22914L104.385 8.95376C104.553 8.87283 104.741 8.82764 104.94 8.82764C105.142 8.82764 105.333 8.87389 105.502 8.95587L105.869 9.22389L112.161 13.8338L112.244 13.8948C112.532 14.1249 112.717 14.476 112.717 14.868Z" fill="white"/>
<path d="M107.532 17.4004H102.348V23.7845H107.532V17.4004Z" fill="white"/>
<path d="M99.6972 23.783H98.6028C97.7765 23.783 97.1055 23.1261 97.1055 22.3147V17.3989H99.6972V23.783Z" fill="white"/>
<path d="M110.184 23.7854H111.298C112.114 23.7854 112.775 23.137 112.775 22.3371V17.4014H110.184V23.7854Z" fill="white"/>
</g>
<defs>
<clipPath id="clip0_2416_13550">
<rect width="122.701" height="47" fill="white" transform="translate(0.371094)"/>
</clipPath>
</defs>
</svg>
