<svg width="124" height="47" viewBox="0 0 124 47" fill="none" xmlns="http://www.w3.org/2000/svg">
<g clip-path="url(#clip0_2416_13499)">
<path fill-rule="evenodd" clip-rule="evenodd" d="M8.54827 23.6824C8.54827 32.9229 15.2637 39.0831 23.7698 39.0831C27.7991 39.0831 31.8283 37.3231 34.5145 34.6829L39.8868 39.9632C35.8575 43.9234 30.0375 46.5635 23.7698 46.5635C11.2344 46.5635 0.9375 37.7631 0.9375 23.6824C0.9375 10.4818 10.339 0.801342 23.7698 0.801342C30.0375 0.801342 35.8575 3.44147 39.8868 7.40165L34.5145 12.6819C31.8283 10.0418 27.7991 8.2817 23.7698 8.2817C14.3683 8.2817 8.54827 14.882 8.54827 23.6824ZM55.1083 46.1235H47.4976V1.24137H55.1083C65.853 1.24137 81.5222 3.88149 81.5222 23.6824C81.5222 43.0433 66.3007 46.1235 55.1083 46.1235ZM55.1083 8.2817V38.6431C55.1083 38.6431 74.3591 41.2832 73.9114 23.2424C73.9114 5.64158 55.1083 8.2817 55.1083 8.2817ZM90.9238 38.6431H120.919V46.1235H90.9238V38.6431Z" fill="#74D414"/>
<circle cx="106.5" cy="17.5" r="16.5" fill="#8C16CC"/>
<path d="M106.302 13.6046C106.302 13.6844 106.294 13.7633 106.275 13.84C106.176 14.2888 105.798 14.6325 105.333 14.6955C105.224 14.7113 105.108 14.7103 104.995 14.6913L104.964 14.6861L104.933 14.6903C104.178 14.7933 103.607 15.4355 103.607 16.1859C103.607 16.2385 103.611 16.291 103.616 16.3425C103.617 16.3509 103.618 16.3594 103.619 16.3678C103.62 16.3783 103.621 16.3888 103.624 16.3993C103.625 16.4088 103.627 16.4193 103.628 16.4287C103.63 16.4455 103.634 16.4634 103.637 16.4802C103.639 16.4865 103.64 16.4928 103.642 16.5002C103.644 16.5086 103.646 16.5181 103.648 16.5265C103.651 16.5391 103.654 16.5506 103.657 16.5633C103.661 16.578 103.665 16.5927 103.67 16.6074C103.672 16.6169 103.675 16.6253 103.678 16.6347C103.686 16.6589 103.693 16.682 103.703 16.7052C103.716 16.7398 103.73 16.7735 103.746 16.8071C103.751 16.8176 103.755 16.8281 103.761 16.8386C103.761 16.8397 103.762 16.8397 103.762 16.8407C103.767 16.8513 103.773 16.8618 103.778 16.8723C103.783 16.8828 103.789 16.8943 103.795 16.9049C103.8 16.9154 103.807 16.9259 103.813 16.9364C103.82 16.9469 103.825 16.9574 103.831 16.9679C103.838 16.9784 103.844 16.9889 103.851 16.9984C103.857 17.0089 103.864 17.0184 103.871 17.0289C103.879 17.0394 103.885 17.0488 103.893 17.0583C103.905 17.0772 103.919 17.0951 103.933 17.113C103.934 17.1151 103.937 17.1161 103.938 17.1182C103.952 17.135 103.965 17.1519 103.98 17.1687C104.007 17.1981 104.034 17.2275 104.063 17.2549C104.07 17.2622 104.079 17.2696 104.087 17.2769C104.1 17.2906 104.116 17.3032 104.131 17.3169H98.6641V12.5556C98.6641 11.0515 99.9117 9.82812 101.446 9.82812H106.271V13.3481L106.276 13.3702C106.294 13.4458 106.302 13.5247 106.302 13.6046Z" fill="white" stroke="#8C16CC"/>
<path d="M114.356 17.6964V22.4881C114.356 23.9922 113.108 25.2156 111.574 25.2156H106.719V21.6662L106.713 21.6441C106.696 21.5684 106.688 21.4896 106.688 21.4097C106.688 21.3299 106.696 21.251 106.714 21.1743C106.813 20.7255 107.191 20.3818 107.656 20.3187C107.766 20.304 107.882 20.304 107.994 20.3229L108.025 20.3282L108.056 20.324C108.812 20.221 109.382 19.5788 109.382 18.8283C109.382 18.8157 109.382 18.8021 109.382 18.7895C109.382 18.7758 109.381 18.7621 109.381 18.7485C109.361 18.3259 109.173 17.9539 108.883 17.6953H114.356V17.6964Z" fill="white" stroke="#8C16CC"/>
<path d="M114.356 12.5566V17.2874L107.84 17.2916L107.665 17.2874H105.147C104.527 17.2874 104.023 16.7934 104.023 16.1859C104.023 15.6488 104.424 15.1863 104.961 15.0991C105.105 15.119 105.253 15.119 105.391 15.0991C106.027 15.0129 106.546 14.541 106.682 13.9271C106.705 13.822 106.717 13.7138 106.717 13.6045C106.717 13.5025 106.706 13.4016 106.686 13.3039V9.8291H111.572C113.108 9.8291 114.356 11.0525 114.356 12.5566Z" fill="white" stroke="#8C16CC"/>
<path d="M108.968 18.8281C108.968 19.3652 108.568 19.8276 108.031 19.9149C107.887 19.8949 107.739 19.8949 107.6 19.9149C106.964 20.001 106.445 20.473 106.309 21.0868C106.286 21.1919 106.274 21.3001 106.274 21.4105C106.274 21.5124 106.285 21.6133 106.305 21.7111V25.1859H101.418C100.683 25.1859 99.9906 24.9073 99.4676 24.4018C98.952 23.8889 98.668 23.2088 98.668 22.4889V17.7266H107.845C108.436 17.7266 108.922 18.1764 108.966 18.745C108.967 18.7629 108.968 18.7818 108.97 18.8007C108.968 18.8091 108.968 18.8186 108.968 18.8281Z" fill="white" stroke="#8C16CC"/>
</g>
<defs>
<clipPath id="clip0_2416_13499">
<rect width="122.701" height="47" fill="white" transform="translate(0.949219)"/>
</clipPath>
</defs>
</svg>
