<svg width="124" height="47" viewBox="0 0 124 47" fill="none" xmlns="http://www.w3.org/2000/svg">
<g clip-path="url(#clip0_2416_13533)">
<path fill-rule="evenodd" clip-rule="evenodd" d="M8.5092 23.6824C8.5092 32.9229 15.2246 39.0831 23.7308 39.0831C27.76 39.0831 31.7892 37.3231 34.4754 34.6829L39.8477 39.9632C35.8185 43.9234 29.9985 46.5635 23.7308 46.5635C11.1954 46.5635 0.898438 37.7631 0.898438 23.6824C0.898438 10.4818 10.3 0.801342 23.7308 0.801342C29.9985 0.801342 35.8185 3.44147 39.8477 7.40165L34.4754 12.6819C31.7892 10.0418 27.76 8.2817 23.7308 8.2817C14.3292 8.2817 8.5092 14.882 8.5092 23.6824ZM55.0693 46.1235H47.4585V1.24137H55.0693C65.8139 1.24137 81.4831 3.88149 81.4831 23.6824C81.4831 43.0433 66.2616 46.1235 55.0693 46.1235ZM55.0693 8.2817V38.6431C55.0693 38.6431 74.32 41.2832 73.8723 23.2424C73.8723 5.64158 55.0693 8.2817 55.0693 8.2817ZM90.8847 38.6431H120.88V46.1235H90.8847V38.6431Z" fill="#74D414"/>
<circle cx="105.5" cy="17.5" r="16.5" fill="#C305D1"/>
<path d="M100.633 12.8023L100.629 12.7998" stroke="#B3B3B3" stroke-miterlimit="10"/>
<path d="M112.527 15.0247V21.9448L106.135 17.2624L104.299 15.917L102.201 14.3804L101.002 13.5017L98.8774 11.9451L98.8699 11.9377L98.8731 11.9419L100.448 14.0093L101.358 15.2033L102.926 17.2624L104.299 19.0649L109.072 25.3302H101.948L98.4379 17.2613L96.6136 13.0676L96.4678 12.7323C96.3746 12.4685 96.3242 12.1868 96.3242 11.8915C96.3242 11.7696 96.3328 11.6508 96.3499 11.5331C96.4078 11.1232 96.5654 10.7437 96.7958 10.419C96.8676 10.3181 96.9459 10.2235 97.0316 10.1341C97.1163 10.0448 97.2085 9.9607 97.306 9.88397C97.6169 9.63803 97.9856 9.46145 98.3897 9.37526C98.5708 9.33638 98.7584 9.31641 98.9513 9.31641C99.3093 9.31641 99.6502 9.38683 99.961 9.51295L100.089 9.56866C100.09 9.56866 100.09 9.56971 100.091 9.56971L104.3 11.4154L112.527 15.0247Z" fill="white"/>
<path d="M112.466 23.9647C112.466 24.6847 111.871 25.268 111.137 25.268C110.79 25.268 110.472 25.1366 110.235 24.9222C110.235 24.9222 110.235 24.9222 110.234 24.9212L109.944 24.5407L104.688 17.6416L104.69 17.6427L111.722 22.7949L112.114 23.0829C112.332 23.3141 112.466 23.6242 112.466 23.9647Z" fill="white"/>
<path d="M110.945 24.541L111.236 24.9215C111.117 24.8143 111.018 24.685 110.945 24.541Z" fill="white"/>
</g>
<defs>
<clipPath id="clip0_2416_13533">
<rect width="122.701" height="47" fill="white" transform="translate(0.910156)"/>
</clipPath>
</defs>
</svg>
