<svg width="124" height="47" viewBox="0 0 124 47" fill="none" xmlns="http://www.w3.org/2000/svg">
<g clip-path="url(#clip0_2416_13519)">
<path fill-rule="evenodd" clip-rule="evenodd" d="M8.02874 23.6829C8.02874 32.9233 14.7441 39.0836 23.2503 39.0836C27.2795 39.0836 31.3088 37.3235 33.9949 34.6834L39.3672 39.9637C35.338 43.9239 29.518 46.564 23.2503 46.564C10.7149 46.564 0.417969 37.7636 0.417969 23.6829C0.417969 10.4823 9.81952 0.80183 23.2503 0.80183C29.518 0.80183 35.338 3.44195 39.3672 7.40214L33.9949 12.6824C31.3088 10.0423 27.2795 8.28218 23.2503 8.28218C13.8488 8.28218 8.02874 14.8825 8.02874 23.6829ZM54.5888 46.124H46.978V1.24186H54.5888C65.3335 1.24186 81.0027 3.88198 81.0027 23.6829C81.0027 43.0438 65.7811 46.124 54.5888 46.124ZM54.5888 8.28218V38.6436C54.5888 38.6436 73.8396 41.2837 73.3919 23.2429C73.3919 5.64207 54.5888 8.28218 54.5888 8.28218ZM90.4043 38.6436H120.4V46.124H90.4043V38.6436Z" fill="#74D414"/>
</g>
<circle cx="105.5" cy="17.5" r="16.5" fill="#161DCC"/>
<path d="M112.556 9.77441H99.4684C98.7609 9.77441 98.1875 10.3367 98.1875 11.0304V23.8639C98.1875 24.5576 98.7609 25.1199 99.4684 25.1199H112.556C113.263 25.1199 113.837 24.5576 113.837 23.8639V11.0304C113.837 10.3367 113.263 9.77441 112.556 9.77441ZM106.012 23.8218C105.314 23.8218 104.748 23.2669 104.748 22.5826C104.748 21.8984 105.314 21.3434 106.012 21.3434C106.71 21.3434 107.276 21.8984 107.276 22.5826C107.276 23.2669 106.71 23.8218 106.012 23.8218ZM111.248 18.8377C111.248 19.4715 110.724 19.9855 110.078 19.9855H102.005C101.359 19.9855 100.835 19.4715 100.835 18.8377V13.5193C100.835 12.8855 101.359 12.3716 102.005 12.3716H110.078C110.724 12.3716 111.248 12.8855 111.248 13.5193V18.8377Z" fill="white"/>
<defs>
<clipPath id="clip0_2416_13519">
<rect width="122.701" height="47" fill="white" transform="translate(0.429688)"/>
</clipPath>
</defs>
</svg>
