<svg width="24" height="24" viewBox="0 0 24 24" fill="none" xmlns="http://www.w3.org/2000/svg">
<path fill-rule="evenodd" clip-rule="evenodd" d="M12.0625 23.625C18.5864 23.625 23.875 18.3364 23.875 11.8125C23.875 5.28863 18.5864 0 12.0625 0C5.53863 0 0.25 5.28863 0.25 11.8125C0.25 18.3364 5.53863 23.625 12.0625 23.625ZM17.079 8.16681C17.6236 8.102 18.1419 7.95683 18.625 7.74278C18.2649 8.28244 17.8073 8.75649 17.2783 9.13379L17.2873 9.48235C17.2873 13.0402 14.58 17.1426 9.62704 17.1426C8.10647 17.1426 6.69169 16.6965 5.5 15.9312C5.71077 15.955 5.92485 15.9681 6.14218 15.9681C7.40357 15.9681 8.56492 15.5392 9.48597 14.8175C8.30821 14.7961 7.31417 14.0178 6.97135 12.9475C7.13621 12.9803 7.30434 12.9975 7.47821 12.9975C7.72426 12.9975 7.96209 12.9639 8.18764 12.9032C6.9566 12.6555 6.02817 11.5672 6.02817 10.2631V10.2295C6.39149 10.4313 6.80649 10.5526 7.24775 10.5674C6.526 10.0852 6.05031 9.2609 6.05031 8.32673C6.05031 7.83298 6.18235 7.37043 6.41446 6.97346C7.74229 8.60231 9.72625 9.67425 11.9636 9.78663C11.9177 9.58977 11.8939 9.38391 11.8939 9.17314C11.8939 7.68702 13.0995 6.48138 14.5865 6.48138C15.3615 6.48138 16.0603 6.80781 16.5516 7.33189C17.1651 7.21051 17.7408 6.98659 18.2624 6.67822C18.0607 7.30564 17.635 7.83381 17.079 8.16681Z" fill="#999999"/>
</svg>
